Coda-Caption-ExtraBold.ufo
<glyph name="quotedbl" format="1">
  <advance width="1203"/>
  <unicode hex="0022"/>
  <outline>
    <contour>
      <point x="360" y="846" type="curve" smooth="yes"/>
      <point x="380" y="846"/>
      <point x="402" y="864"/>
      <point x="411" y="899" type="curve" smooth="yes"/>
      <point x="451" y="1070"/>
      <point x="542" y="1339"/>
      <point x="542" y="1445" type="curve" smooth="yes"/>
      <point x="542" y="1557"/>
      <point x="451" y="1616"/>
      <point x="358" y="1616" type="curve" smooth="yes"/>
      <point x="266" y="1616"/>
      <point x="182" y="1561"/>
      <point x="182" y="1445" type="curve" smooth="yes"/>
      <point x="182" y="1343"/>
      <point x="269" y="1074"/>
      <point x="309" y="899" type="curve"/>
      <point x="319" y="863"/>
      <point x="340" y="846"/>
    </contour>
    <contour>
      <point x="838" y="846" type="curve" smooth="yes"/>
      <point x="858" y="846"/>
      <point x="881" y="864"/>
      <point x="889" y="899" type="curve" smooth="yes"/>
      <point x="929" y="1070"/>
      <point x="1020" y="1339"/>
      <point x="1020" y="1445" type="curve" smooth="yes"/>
      <point x="1020" y="1557"/>
      <point x="929" y="1616"/>
      <point x="836" y="1616" type="curve" smooth="yes"/>
      <point x="744" y="1616"/>
      <point x="660" y="1561"/>
      <point x="660" y="1445" type="curve" smooth="yes"/>
      <point x="660" y="1343"/>
      <point x="747" y="1074"/>
      <point x="787" y="899" type="curve"/>
      <point x="797" y="863"/>
      <point x="818" y="846"/>
    </contour>
  </outline>
</glyph>
<glyph name="dollar" format="1">
  <advance width="1313"/>
  <unicode hex="0024"/>
  <outline>
    <component base="S"/>
    <contour>
      <point x="763" y="105" type="line"/>
      <point x="763" y="-210" type="line"/>
      <point x="893" y="-210" type="line"/>
      <point x="893" y="105" type="line"/>
    </contour>
    <contour>
      <point x="763" y="1799" type="line"/>
      <point x="763" y="1484" type="line"/>
      <point x="893" y="1484" type="line"/>
      <point x="893" y="1799" type="line"/>
    </contour>
  </outline>
</glyph>
<glyph name="plus" format="1">
  <advance width="1468"/>
  <unicode hex="002B"/>
  <outline>
    <contour>
      <point x="548" y="112" type="line"/>
      <point x="917" y="112" type="line"/>
      <point x="917" y="489" type="line"/>
      <point x="1276" y="489" type="line"/>
      <point x="1276" y="805" type="line"/>
      <point x="917" y="805" type="line"/>
      <point x="917" y="1185" type="line"/>
      <point x="548" y="1185" type="line"/>
      <point x="548" y="805" type="line"/>
      <point x="189" y="805" type="line"/>
      <point x="189" y="489" type="line"/>
      <point x="548" y="489" type="line"/>
    </contour>
  </outline>
</glyph>
<glyph name="zero" format="1">
  <advance width="1509"/>
  <unicode hex="0030"/>
  <outline>
    <contour>
      <point x="755" y="224" type="curve" smooth="yes"/>
      <point x="734" y="224"/>
      <point x="650" y="228"/>
      <point x="649" y="240" type="curve" smooth="yes"/>
      <point x="648" y="254"/>
      <point x="648" y="775"/>
      <point x="648" y="790" type="curve" smooth="yes"/>
      <point x="648" y="805"/>
      <point x="649" y="1327"/>
      <point x="649" y="1341" type="curve" smooth="yes"/>
      <point x="650" y="1354"/>
      <point x="735" y="1359"/>
      <point x="755" y="1359" type="curve" smooth="yes"/>
      <point x="774" y="1359"/>
      <point x="859" y="1354"/>
      <point x="860" y="1341" type="curve" smooth="yes"/>
      <point x="861" y="1327"/>
      <point x="861" y="805"/>
      <point x="861" y="790" type="curve" smooth="yes"/>
      <point x="861" y="775"/>
      <point x="861" y="254"/>
      <point x="860" y="240" type="curve" smooth="yes"/>
      <point x="859" y="228"/>
      <point x="775" y="224"/>
    </contour>
    <contour>
      <point x="757" y="-37" type="curve" smooth="yes"/>
      <point x="1088" y="-37"/>
      <point x="1387" y="0"/>
      <point x="1387" y="394" type="curve" smooth="yes"/>
      <point x="1387" y="1201" type="line" smooth="yes"/>
      <point x="1387" y="1573"/>
      <point x="1087" y="1620"/>
      <point x="756" y="1620" type="curve" smooth="yes"/>
      <point x="432" y="1620"/>
      <point x="122" y="1578"/>
      <point x="122" y="1195" type="curve" smooth="yes"/>
      <point x="122" y="388" type="line" smooth="yes"/>
      <point x="122" y="8"/>
      <point x="425" y="-37"/>
    </contour>
  </outline>
</glyph>
<glyph name="three" format="1">
  <advance width="1508"/>
  <unicode hex="0033"/>
  <outline>
    <contour>
      <point x="763" y="-37" type="curve" smooth="yes"/>
      <point x="1177" y="-37"/>
      <point x="1397" y="109"/>
      <point x="1397" y="453" type="curve" smooth="yes"/>
      <point x="1397" y="645"/>
      <point x="1328" y="767"/>
      <point x="1197" y="815" type="curve"/>
      <point x="1314" y="852"/>
      <point x="1394" y="940"/>
      <point x="1394" y="1152" type="curve" smooth="yes"/>
      <point x="1394" y="1487"/>
      <point x="1185" y="1619"/>
      <point x="764" y="1619" type="curve" smooth="yes"/>
      <point x="347" y="1619"/>
      <point x="143" y="1495"/>
      <point x="138" y="1117" type="curve" smooth="yes"/>
      <point x="137" y="1055" type="line"/>
      <point x="654" y="1036" type="line"/>
      <point x="654" y="1048"/>
      <point x="655" y="1356"/>
      <point x="657" y="1357" type="curve" smooth="yes"/>
      <point x="660" y="1361"/>
      <point x="749" y="1362"/>
      <point x="763" y="1362" type="curve" smooth="yes"/>
      <point x="788" y="1362"/>
      <point x="867" y="1357"/>
      <point x="867" y="1339" type="curve" smooth="yes"/>
      <point x="867" y="1318"/>
      <point x="867" y="922"/>
      <point x="862" y="922" type="curve" smooth="yes"/>
      <point x="593" y="922" type="line"/>
      <point x="594" y="706" type="line"/>
      <point x="862" y="706" type="line" smooth="yes"/>
      <point x="867" y="706"/>
      <point x="868" y="276"/>
      <point x="868" y="253" type="curve" smooth="yes"/>
      <point x="868" y="230"/>
      <point x="789" y="224"/>
      <point x="760" y="224" type="curve" smooth="yes"/>
      <point x="746" y="224"/>
      <point x="658" y="224"/>
      <point x="655" y="229" type="curve" smooth="yes"/>
      <point x="652" y="232"/>
      <point x="652" y="577"/>
      <point x="652" y="587" type="curve"/>
      <point x="139" y="560" type="line"/>
      <point x="139" y="492" type="line" smooth="yes"/>
      <point x="139" y="113"/>
      <point x="296" y="-37"/>
    </contour>
  </outline>
</glyph>
<glyph name="five" format="1">
  <advance width="1508"/>
  <unicode hex="0035"/>
  <outline>
    <contour>
      <point x="792" y="-37" type="curve" smooth="yes"/>
      <point x="1256" y="-37"/>
      <point x="1427" y="85"/>
      <point x="1427" y="544" type="curve" smooth="yes"/>
      <point x="1427" y="901"/>
      <point x="1310" y="1090"/>
      <point x="979" y="1090" type="curve" smooth="yes"/>
      <point x="813" y="1090"/>
      <point x="724" y="1047"/>
      <point x="668" y="992" type="curve"/>
      <point x="672" y="1303" type="line"/>
      <point x="1297" y="1303" type="line"/>
      <point x="1297" y="1585" type="line"/>
      <point x="229" y="1585" type="line"/>
      <point x="182" y="656" type="line"/>
      <point x="679" y="654" type="line"/>
      <point x="680" y="660"/>
      <point x="682" y="829"/>
      <point x="685" y="831" type="curve" smooth="yes"/>
      <point x="690" y="834"/>
      <point x="779" y="834"/>
      <point x="788" y="834" type="curve" smooth="yes"/>
      <point x="817" y="834"/>
      <point x="899" y="830"/>
      <point x="899" y="807" type="curve" smooth="yes"/>
      <point x="899" y="251" type="line" smooth="yes"/>
      <point x="899" y="236"/>
      <point x="815" y="226"/>
      <point x="786" y="226" type="curve" smooth="yes"/>
      <point x="764" y="226"/>
      <point x="678" y="228"/>
      <point x="676" y="242" type="curve" smooth="yes"/>
      <point x="676" y="245"/>
      <point x="675" y="461"/>
      <point x="675" y="464" type="curve"/>
      <point x="165" y="462" type="line"/>
      <point x="165" y="460"/>
      <point x="164" y="374"/>
      <point x="164" y="372" type="curve" smooth="yes"/>
      <point x="161" y="71"/>
      <point x="330" y="-37"/>
    </contour>
  </outline>
</glyph>
<glyph name="seven" format="1">
  <advance width="1508"/>
  <unicode hex="0037"/>
  <outline>
    <contour>
      <point x="384" y="0" type="line"/>
      <point x="956" y="0" type="line"/>
      <point x="1373" y="1302" type="line"/>
      <point x="1373" y="1585" type="line"/>
      <point x="164" y="1585" type="line"/>
      <point x="164" y="1304" type="line"/>
      <point x="798" y="1304" type="line"/>
    </contour>
  </outline>
</glyph>
<glyph name="question" format="1">
  <advance width="1039"/>
  <unicode hex="003F"/>
  <outline>
    <contour>
      <point x="412" y="503" type="curve" smooth="yes"/>
      <point x="440" y="503"/>
      <point x="468" y="518"/>
      <point x="473" y="559" type="curve" smooth="yes"/>
      <point x="483" y="652"/>
      <point x="524" y="729"/>
      <point x="577" y="799" type="curve" smooth="yes"/>
      <point x="710" y="974"/>
      <point x="919" y="1086"/>
      <point x="919" y="1300" type="curve" smooth="yes"/>
      <point x="919" y="1468"/>
      <point x="816" y="1621"/>
      <point x="491" y="1621" type="curve" smooth="yes"/>
      <point x="397" y="1621"/>
      <point x="279" y="1600"/>
      <point x="131" y="1552" type="curve"/>
      <point x="166" y="1223" type="line"/>
      <point x="252" y="1257"/>
      <point x="315" y="1271"/>
      <point x="363" y="1271" type="curve" smooth="yes"/>
      <point x="468" y="1271"/>
      <point x="509" y="1217"/>
      <point x="509" y="1150" type="curve" smooth="yes"/>
      <point x="509" y="1086"/>
      <point x="465" y="990"/>
      <point x="424" y="890" type="curve" smooth="yes"/>
      <point x="384" y="795"/>
      <point x="352" y="696"/>
      <point x="352" y="572" type="curve" smooth="yes"/>
      <point x="352" y="529"/>
      <point x="371" y="503"/>
    </contour>
    <contour>
      <point x="413" y="-38" type="curve" smooth="yes"/>
      <point x="512" y="-38"/>
      <point x="610" y="30"/>
      <point x="610" y="166" type="curve" smooth="yes"/>
      <point x="610" y="301"/>
      <point x="511" y="369"/>
      <point x="412" y="369" type="curve" smooth="yes"/>
      <point x="314" y="369"/>
      <point x="215" y="302"/>
      <point x="215" y="166" type="curve" smooth="yes"/>
      <point x="215" y="30"/>
      <point x="314" y="-38"/>
    </contour>
  </outline>
</glyph>
<glyph name="at" format="1">
  <advance width="2317"/>
  <unicode hex="0040"/>
  <outline>
    <contour>
      <point x="1222" y="-377" type="curve" smooth="yes"/>
      <point x="1431" y="-377"/>
      <point x="1695" y="-329"/>
      <point x="1831" y="-244" type="curve"/>
      <point x="1765" y="-45" type="line"/>
      <point x="1574" y="-125"/>
      <point x="1379" y="-153"/>
      <point x="1277" y="-153" type="curve" smooth="yes"/>
      <point x="654" y="-153"/>
      <point x="476" y="66"/>
      <point x="476" y="689" type="curve" smooth="yes"/>
      <point x="476" y="1201"/>
      <point x="634" y="1476"/>
      <point x="1216" y="1476" type="curve" smooth="yes"/>
      <point x="1664" y="1476"/>
      <point x="1861" y="1324"/>
      <point x="1861" y="816" type="curve" smooth="yes"/>
      <point x="1861" y="783"/>
      <point x="1843" y="329"/>
      <point x="1837" y="324" type="curve"/>
      <point x="1833" y="322"/>
      <point x="1674" y="322"/>
      <point x="1664" y="322" type="curve"/>
      <point x="1664" y="845" type="line" smooth="yes"/>
      <point x="1664" y="1142"/>
      <point x="1553" y="1243"/>
      <point x="1207" y="1243" type="curve" smooth="yes"/>
      <point x="929" y="1243"/>
      <point x="735" y="1201"/>
      <point x="739" y="958" type="curve" smooth="yes"/>
      <point x="739" y="955"/>
      <point x="740" y="890"/>
      <point x="741" y="887" type="curve"/>
      <point x="1161" y="887" type="line"/>
      <point x="1161" y="892"/>
      <point x="1160" y="1020"/>
      <point x="1162" y="1023" type="curve" smooth="yes"/>
      <point x="1165" y="1026"/>
      <point x="1199" y="1027"/>
      <point x="1210" y="1027" type="curve" smooth="yes"/>
      <point x="1228" y="1027"/>
      <point x="1260" y="1025"/>
      <point x="1260" y="1013" type="curve" smooth="yes"/>
      <point x="1260" y="780" type="line"/>
      <point x="1245" y="783"/>
      <point x="1035" y="782"/>
      <point x="1025" y="782" type="curve" smooth="yes"/>
      <point x="748" y="779"/>
      <point x="684" y="610"/>
      <point x="690" y="408" type="curve" smooth="yes"/>
      <point x="696" y="199"/>
      <point x="809" y="115"/>
      <point x="1030" y="115" type="curve" smooth="yes"/>
      <point x="1160" y="115"/>
      <point x="1238" y="175"/>
      <point x="1289" y="245" type="curve"/>
      <point x="1346" y="147"/>
      <point x="1464" y="97"/>
      <point x="1621" y="95" type="curve" smooth="yes"/>
      <point x="2098" y="95"/>
      <point x="2197" y="398"/>
      <point x="2197" y="856" type="curve" smooth="yes"/>
      <point x="2197" y="1487"/>
      <point x="1900" y="1719"/>
      <point x="1211" y="1719" type="curve" smooth="yes"/>
      <point x="512" y="1719"/>
      <point x="151" y="1471"/>
      <point x="151" y="681" type="curve" smooth="yes"/>
      <point x="151" y="-160"/>
      <point x="608" y="-377"/>
    </contour>
    <contour>
      <point x="1194" y="326" type="curve" smooth="yes"/>
      <point x="1171" y="326"/>
      <point x="1126" y="330"/>
      <point x="1126" y="342" type="curve" smooth="yes"/>
      <point x="1126" y="363"/>
      <point x="1131" y="640"/>
      <point x="1147" y="640" type="curve" smooth="yes"/>
      <point x="1259" y="641" type="line"/>
      <point x="1259" y="348" type="line" smooth="yes"/>
      <point x="1259" y="337"/>
      <point x="1210" y="326"/>
    </contour>
  </outline>
</glyph>
<glyph name="A" format="1">
  <advance width="1647"/>
  <unicode hex="0041"/>
  <outline>
    <contour>
      <point x="823" y="0" type="move" name="bot"/>
    </contour>
    <contour>
      <point x="1250" y="0" type="move" name="ogonek"/>
    </contour>
    <contour>
      <point x="823" y="1585" type="move" name="top"/>
    </contour>
    <contour>
      <point x="400" y="1585" type="line"/>
      <point x="91" y="0" type="line"/>
      <point x="638" y="0" type="line"/>
      <point x="699" y="368" type="line"/>
      <point x="947" y="368" type="line"/>
      <point x="1007" y="0" type="line"/>
      <point x="1556" y="0" type="line"/>
      <point x="1243" y="1585" type="line"/>
    </contour>
    <contour>
      <point x="926" y="571" type="line"/>
      <point x="719" y="571" type="line"/>
      <point x="812" y="1289" type="line"/>
      <point x="829" y="1289" type="line"/>
    </contour>
  </outline>
</glyph>
<glyph name="D" format="1">
  <advance width="1705"/>
  <unicode hex="0044"/>
  <outline>
    <contour>
      <point x="474" y="801" type="move" name="mid"/>
    </contour>
    <contour>
      <point x="854" y="0" type="move" name="bot"/>
    </contour>
    <contour>
      <point x="854" y="1585" type="move" name="top"/>
    </contour>
    <contour>
      <point x="183" y="1585" type="line"/>
      <point x="183" y="0" type="line"/>
      <point x="900" y="0" type="line" smooth="yes"/>
      <point x="1244" y="0"/>
      <point x="1537" y="26"/>
      <point x="1537" y="422" type="curve" smooth="yes"/>
      <point x="1538" y="1169" type="line" smooth="yes"/>
      <point x="1538" y="1538"/>
      <point x="1248" y="1585"/>
      <point x="915" y="1585" type="curve" smooth="yes"/>
    </contour>
    <contour>
      <point x="974" y="941" type="curve" smooth="yes"/>
      <point x="974" y="548" type="line" smooth="yes"/>
      <point x="974" y="503"/>
      <point x="967" y="227"/>
      <point x="928" y="227" type="curve" smooth="yes"/>
      <point x="748" y="227" type="line"/>
      <point x="748" y="1356" type="line"/>
      <point x="925" y="1356" type="line" smooth="yes"/>
      <point x="974" y="1356"/>
      <point x="974" y="980"/>
    </contour>
  </outline>
</glyph>
<glyph name="E" format="1">
  <advance width="1264"/>
  <unicode hex="0045"/>
  <outline>
    <contour>
      <point x="633" y="0" type="move" name="bot"/>
    </contour>
    <contour>
      <point x="684" y="0" type="move" name="ogonek"/>
    </contour>
    <contour>
      <point x="633" y="1585" type="move" name="top"/>
    </contour>
    <contour>
      <point x="183" y="1585" type="line"/>
      <point x="183" y="0" type="line"/>
      <point x="1118" y="0" type="line"/>
      <point x="1120" y="241" type="line"/>
      <point x="747" y="241" type="line"/>
      <point x="747" y="709" type="line"/>
      <point x="1089" y="709" type="line"/>
      <point x="1089" y="951" type="line"/>
      <point x="747" y="951" type="line"/>
      <point x="747" y="1345" type="line"/>
      <point x="1130" y="1345" type="line"/>
      <point x="1117" y="1585" type="line"/>
    </contour>
  </outline>
</glyph>
<glyph name="F" format="1">
  <advance width="1220"/>
  <unicode hex="0046"/>
  <outline>
    <contour>
      <point x="622" y="0" type="move" name="bot"/>
    </contour>
    <contour>
      <point x="627" y="1585" type="move" name="top"/>
    </contour>
    <contour>
      <point x="183" y="1585" type="line"/>
      <point x="183" y="0" type="line"/>
      <point x="747" y="0" type="line"/>
      <point x="747" y="703" type="line"/>
      <point x="1086" y="703" type="line"/>
      <point x="1086" y="944" type="line"/>
      <point x="747" y="944" type="line"/>
      <point x="747" y="1345" type="line"/>
      <point x="1124" y="1345" type="line"/>
      <point x="1113" y="1585" type="line"/>
    </contour>
  </outline>
</glyph>
<glyph name="H" format="1">
  <advance width="1734"/>
  <unicode hex="0048"/>
  <outline>
    <contour>
      <point x="868" y="793" type="move" name="center"/>
    </contour>
    <contour>
      <point x="868" y="0" type="move" name="bot"/>
    </contour>
    <contour>
      <point x="868" y="1585" type="move" name="top"/>
    </contour>
    <contour>
      <point x="987" y="1585" type="line"/>
      <point x="987" y="901" type="line"/>
      <point x="747" y="901" type="line"/>
      <point x="747" y="1585" type="line"/>
      <point x="183" y="1585" type="line"/>
      <point x="183" y="0" type="line"/>
      <point x="747" y="0" type="line"/>
      <point x="747" y="688" type="line"/>
      <point x="987" y="688" type="line"/>
      <point x="987" y="0" type="line"/>
      <point x="1551" y="0" type="line"/>
      <point x="1551" y="1585" type="line"/>
    </contour>
  </outline>
</glyph>
<glyph name="J" format="1">
  <advance width="1067"/>
  <unicode hex="004A"/>
  <outline>
    <contour>
      <point x="529" y="0" type="move" name="bot"/>
    </contour>
    <contour>
      <point x="598" y="1585" type="move" name="top"/>
    </contour>
    <contour>
      <point x="383" y="-145" type="curve" smooth="yes"/>
      <point x="666" y="-145"/>
      <point x="883" y="-36"/>
      <point x="883" y="279" type="curve" smooth="yes"/>
      <point x="883" y="1585" type="line"/>
      <point x="320" y="1585" type="line"/>
      <point x="320" y="267" type="line" smooth="yes"/>
      <point x="320" y="254"/>
      <point x="319" y="140"/>
      <point x="307" y="138" type="curve" smooth="yes"/>
      <point x="107" y="138" type="line"/>
      <point x="135" y="-121" type="line"/>
      <point x="215" y="-136"/>
      <point x="303" y="-145"/>
    </contour>
  </outline>
</glyph>
<glyph name="L" format="1">
  <advance width="1227"/>
  <unicode hex="004C"/>
  <outline>
    <contour>
      <point x="618" y="0" type="move" name="bot"/>
    </contour>
    <contour>
      <point x="539" y="1280" type="move" name="caron.alt"/>
    </contour>
    <contour>
      <point x="594" y="1585" type="move" name="top"/>
    </contour>
    <contour>
      <point x="183" y="1585" type="line"/>
      <point x="183" y="0" type="line"/>
      <point x="1109" y="0" type="line"/>
      <point x="1111" y="232" type="line"/>
      <point x="747" y="232" type="line"/>
      <point x="747" y="1585" type="line"/>
    </contour>
  </outline>
</glyph>
<glyph name="M" format="1">
  <advance width="2000"/>
  <unicode hex="004D"/>
  <outline>
    <contour>
      <point x="994" y="0" type="move" name="bot"/>
    </contour>
    <contour>
      <point x="994" y="1585" type="move" name="top"/>
    </contour>
    <contour>
      <point x="1156" y="1585" type="line"/>
      <point x="1000" y="637" type="line"/>
      <point x="988" y="637" type="line"/>
      <point x="831" y="1585" type="line"/>
      <point x="206" y="1585" type="line"/>
      <point x="120" y="0" type="line"/>
      <point x="554" y="0" type="line"/>
      <point x="611" y="981" type="line"/>
      <point x="624" y="981" type="line"/>
      <point x="798" y="-1" type="line"/>
      <point x="1193" y="-1" type="line"/>
      <point x="1376" y="981" type="line"/>
      <point x="1389" y="981" type="line"/>
      <point x="1446" y="0" type="line"/>
      <point x="1868" y="0" type="line"/>
      <point x="1782" y="1585" type="line"/>
    </contour>
  </outline>
</glyph>
<glyph name="N" format="1">
  <advance width="1729"/>
  <unicode hex="004E"/>
  <outline>
    <contour>
      <point x="864" y="0" type="move" name="bot"/>
    </contour>
    <contour>
      <point x="866" y="1585" type="move" name="top"/>
    </contour>
    <contour>
      <point x="1128" y="1585" type="line"/>
      <point x="1128" y="780" type="line"/>
      <point x="669" y="1585" type="line"/>
      <point x="183" y="1585" type="line"/>
      <point x="183" y="0" type="line"/>
      <point x="604" y="0" type="line"/>
      <point x="604" y="758" type="line"/>
      <point x="1040" y="0" type="line"/>
      <point x="1546" y="0" type="line"/>
      <point x="1546" y="1585" type="line"/>
    </contour>
  </outline>
</glyph>
<glyph name="O" format="1">
  <advance width="1696"/>
  <unicode hex="004F"/>
  <outline>
    <contour>
      <point x="848" y="0" type="move" name="bot"/>
    </contour>
    <contour>
      <point x="974" y="0" type="move" name="ogonek"/>
    </contour>
    <contour>
      <point x="848" y="1585" type="move" name="top"/>
    </contour>
    <contour>
      <point x="848" y="224" type="curve" smooth="yes"/>
      <point x="815" y="224"/>
      <point x="734" y="229"/>
      <point x="734" y="250" type="curve" smooth="yes"/>
      <point x="733" y="259"/>
      <point x="733" y="776"/>
      <point x="733" y="793" type="curve" smooth="yes"/>
      <point x="733" y="810"/>
      <point x="733" y="1326"/>
      <point x="734" y="1336" type="curve" smooth="yes"/>
      <point x="734" y="1357"/>
      <point x="815" y="1362"/>
      <point x="848" y="1362" type="curve" smooth="yes"/>
      <point x="882" y="1362"/>
      <point x="963" y="1357"/>
      <point x="963" y="1336" type="curve" smooth="yes"/>
      <point x="964" y="1326"/>
      <point x="964" y="810"/>
      <point x="964" y="793" type="curve" smooth="yes"/>
      <point x="964" y="776"/>
      <point x="964" y="259"/>
      <point x="963" y="250" type="curve" smooth="yes"/>
      <point x="963" y="229"/>
      <point x="882" y="224"/>
    </contour>
    <contour>
      <point x="845" y="-38" type="curve" smooth="yes"/>
      <point x="1167" y="-37"/>
      <point x="1528" y="4"/>
      <point x="1528" y="400" type="curve" smooth="yes"/>
      <point x="1528" y="1185" type="line" smooth="yes"/>
      <point x="1528" y="1579"/>
      <point x="1140" y="1623"/>
      <point x="845" y="1623" type="curve" smooth="yes"/>
      <point x="525" y="1623"/>
      <point x="168" y="1575"/>
      <point x="168" y="1185" type="curve" smooth="yes"/>
      <point x="168" y="400" type="line" smooth="yes"/>
      <point x="168" y="2"/>
      <point x="507" y="-38"/>
    </contour>
  </outline>
</glyph>
<glyph name="P" format="1">
  <advance width="1646"/>
  <unicode hex="0050"/>
  <outline>
    <contour>
      <point x="835" y="0" type="move" name="bot"/>
    </contour>
    <contour>
      <point x="835" y="1585" type="move" name="top"/>
    </contour>
    <contour>
      <point x="183" y="0" type="line"/>
      <point x="747" y="0" type="line"/>
      <point x="747" y="414" type="line"/>
      <point x="923" y="414" type="line" smooth="yes"/>
      <point x="1227" y="414"/>
      <point x="1526" y="443"/>
      <point x="1527" y="812" type="curve" smooth="yes"/>
      <point x="1527" y="1184" type="line" smooth="yes"/>
      <point x="1527" y="1545"/>
      <point x="1236" y="1585"/>
      <point x="917" y="1585" type="curve" smooth="yes"/>
      <point x="183" y="1585" type="line"/>
    </contour>
    <contour>
      <point x="746" y="632" type="line"/>
      <point x="746" y="1360" type="line"/>
      <point x="864" y="1360" type="line" smooth="yes"/>
      <point x="870" y="1360"/>
      <point x="952" y="1359"/>
      <point x="955" y="1357" type="curve" smooth="yes"/>
      <point x="961" y="1353"/>
      <point x="961" y="1014"/>
      <point x="962" y="997" type="curve" smooth="yes"/>
      <point x="962" y="981"/>
      <point x="962" y="641"/>
      <point x="955" y="636" type="curve" smooth="yes"/>
      <point x="951" y="634"/>
      <point x="868" y="632"/>
      <point x="860" y="632" type="curve" smooth="yes"/>
    </contour>
  </outline>
</glyph>
<glyph name="Q" format="1">
  <advance width="1696"/>
  <unicode hex="0051"/>
  <outline>
    <component base="O"/>
    <contour>
      <point x="717" y="79" type="line"/>
      <point x="1056" y="-422" type="line"/>
      <point x="1355" y="-254" type="line"/>
      <point x="1112" y="122" type="line"/>
    </contour>
  </outline>
</glyph>
<glyph name="R" format="1">
  <advance width="1696"/>
  <unicode hex="0052"/>
  <outline>
    <contour>
      <point x="839" y="0" type="move" name="bot"/>
    </contour>
    <contour>
      <point x="839" y="1585" type="move" name="top"/>
    </contour>
    <contour>
      <point x="183" y="0" type="line"/>
      <point x="747" y="0" type="line"/>
      <point x="747" y="648" type="line"/>
      <point x="933" y="648" type="line" smooth="yes"/>
      <point x="948" y="648"/>
      <point x="959" y="561"/>
      <point x="961" y="545" type="curve" smooth="yes"/>
      <point x="967" y="0" type="line"/>
      <point x="1534" y="0" type="line"/>
      <point x="1527" y="440" type="line" smooth="yes"/>
      <point x="1524" y="608"/>
      <point x="1435" y="747"/>
      <point x="1168" y="779" type="curve"/>
      <point x="1168" y="784" type="line"/>
      <point x="1451" y="813"/>
      <point x="1517" y="953"/>
      <point x="1517" y="1180" type="curve" smooth="yes"/>
      <point x="1517" y="1499"/>
      <point x="1349" y="1585"/>
      <point x="1050" y="1585" type="curve" smooth="yes"/>
      <point x="183" y="1585" type="line"/>
    </contour>
    <contour>
      <point x="747" y="873" type="line"/>
      <point x="747" y="1356" type="line"/>
      <point x="936" y="1356" type="line" smooth="yes"/>
      <point x="964" y="1356"/>
      <point x="966" y="1137"/>
      <point x="966" y="1116" type="curve" smooth="yes"/>
      <point x="966" y="1094"/>
      <point x="963" y="873"/>
      <point x="937" y="873" type="curve" smooth="yes"/>
    </contour>
  </outline>
</glyph>
<glyph name="S" format="1">
  <advance width="1637"/>
  <unicode hex="0053"/>
  <outline>
    <contour>
      <point x="809" y="0" type="move" name="bot"/>
    </contour>
    <contour>
      <point x="809" y="1585" type="move" name="top"/>
    </contour>
    <contour>
      <point x="817" y="-38" type="curve" smooth="yes"/>
      <point x="1330" y="-38"/>
      <point x="1479" y="74"/>
      <point x="1479" y="532" type="curve" smooth="yes"/>
      <point x="1479" y="861"/>
      <point x="1272" y="964"/>
      <point x="1023" y="1012" type="curve" smooth="yes"/>
      <point x="821" y="1050" type="line" smooth="yes"/>
      <point x="707" y="1072"/>
      <point x="702" y="1086"/>
      <point x="700" y="1124" type="curve" smooth="yes"/>
      <point x="697" y="1126"/>
      <point x="695" y="1324"/>
      <point x="695" y="1331" type="curve" smooth="yes"/>
      <point x="695" y="1353"/>
      <point x="776" y="1357"/>
      <point x="804" y="1357" type="curve" smooth="yes"/>
      <point x="819" y="1357"/>
      <point x="903" y="1356"/>
      <point x="906" y="1353" type="curve" smooth="yes"/>
      <point x="910" y="1350"/>
      <point x="909" y="1184"/>
      <point x="910" y="1175" type="curve"/>
      <point x="1410" y="1179" type="line"/>
      <point x="1409" y="1563"/>
      <point x="1215" y="1623"/>
      <point x="789" y="1623" type="curve" smooth="yes"/>
      <point x="358" y="1623"/>
      <point x="156" y="1539"/>
      <point x="156" y="1108" type="curve" smooth="yes"/>
      <point x="156" y="825"/>
      <point x="277" y="723"/>
      <point x="532" y="657" type="curve" smooth="yes"/>
      <point x="784" y="595" type="line"/>
      <point x="885" y="569"/>
      <point x="906" y="559"/>
      <point x="906" y="511" type="curve"/>
      <point x="912" y="510"/>
      <point x="913" y="269"/>
      <point x="913" y="252" type="curve" smooth="yes"/>
      <point x="913" y="230"/>
      <point x="832" y="226"/>
      <point x="804" y="226" type="curve" smooth="yes"/>
      <point x="787" y="226"/>
      <point x="702" y="227"/>
      <point x="698" y="231" type="curve" smooth="yes"/>
      <point x="695" y="235"/>
      <point x="695" y="469"/>
      <point x="694" y="480" type="curve"/>
      <point x="159" y="477" type="line"/>
      <point x="161" y="63"/>
      <point x="332" y="-38"/>
    </contour>
  </outline>
</glyph>
<glyph name="W" format="1">
  <advance width="2043"/>
  <unicode hex="0057"/>
  <outline>
    <contour>
      <point x="1018" y="0" type="move" name="bot"/>
    </contour>
    <contour>
      <point x="1018" y="1585" type="move" name="top"/>
    </contour>
    <contour>
      <point x="1523" y="1585" type="line"/>
      <point x="1404" y="594" type="line"/>
      <point x="1390" y="592" type="line"/>
      <point x="1252" y="1585" type="line"/>
      <point x="800" y="1585" type="line"/>
      <point x="664" y="592" type="line"/>
      <point x="652" y="592" type="line"/>
      <point x="561" y="1585" type="line"/>
      <point x="34" y="1585" type="line"/>
      <point x="254" y="0" type="line"/>
      <point x="836" y="0" type="line"/>
      <point x="1000" y="951" type="line"/>
      <point x="1011" y="951" type="line"/>
      <point x="1173" y="0" type="line"/>
      <point x="1772" y="0" type="line"/>
      <point x="2001" y="1585" type="line"/>
    </contour>
  </outline>
</glyph>
<glyph name="X" format="1">
  <advance width="1592"/>
  <unicode hex="0058"/>
  <outline>
    <contour>
      <point x="1046" y="1585" type="line"/>
      <point x="704" y="954" type="line"/>
      <point x="544" y="927" type="line"/>
      <point x="11" y="0" type="line"/>
      <point x="526" y="0" type="line"/>
      <point x="901" y="651" type="line"/>
      <point x="1075" y="686" type="line"/>
      <point x="1564" y="1585" type="line"/>
    </contour>
    <contour>
      <point x="72" y="1585" type="line"/>
      <point x="1035" y="0" type="line"/>
      <point x="1556" y="0" type="line"/>
      <point x="589" y="1585" type="line"/>
    </contour>
  </outline>
</glyph>
<glyph name="asciicircum" format="1">
  <advance width="1338"/>
  <unicode hex="005E"/>
  <outline>
    <contour>
      <point x="667" y="1568" type="curve" smooth="yes"/>
      <point x="574" y="1567"/>
      <point x="467" y="1537"/>
      <point x="420" y="1434" type="curve" smooth="yes"/>
      <point x="58" y="646" type="line" smooth="yes"/>
      <point x="-8" y="503"/>
      <point x="195" y="378"/>
      <point x="289" y="534" type="curve" smooth="yes"/>
      <point x="667" y="1163" type="line"/>
      <point x="1045" y="534" type="line" smooth="yes"/>
      <point x="1139" y="378"/>
      <point x="1342" y="503"/>
      <point x="1276" y="646" type="curve" smooth="yes"/>
      <point x="914" y="1434" type="line" smooth="yes"/>
      <point x="867" y="1537"/>
      <point x="760" y="1567"/>
    </contour>
  </outline>
</glyph>
<glyph name="c" format="1">
  <advance width="1545"/>
  <unicode hex="0063"/>
  <outline>
    <contour>
      <point x="762" y="0" type="move" name="bot"/>
    </contour>
    <contour>
      <point x="761" y="1280" type="move" name="top"/>
    </contour>
    <contour>
      <point x="136" y="921" type="curve" smooth="yes"/>
      <point x="136" y="371" type="line" smooth="yes"/>
      <point x="136" y="11"/>
      <point x="453" y="-22"/>
      <point x="771" y="-22" type="curve" smooth="yes"/>
      <point x="1075" y="-22"/>
      <point x="1401" y="-5"/>
      <point x="1401" y="342" type="curve" smooth="yes"/>
      <point x="1401" y="495" type="line"/>
      <point x="870" y="512" type="line"/>
      <point x="869" y="201" type="line" smooth="yes"/>
      <point x="868" y="192"/>
      <point x="790" y="191"/>
      <point x="770" y="191" type="curve" smooth="yes"/>
      <point x="745" y="191"/>
      <point x="669" y="196"/>
      <point x="669" y="223" type="curve" smooth="yes"/>
      <point x="669" y="1066" type="line" smooth="yes"/>
      <point x="669" y="1087"/>
      <point x="746" y="1092"/>
      <point x="771" y="1092" type="curve" smooth="yes"/>
      <point x="793" y="1092"/>
      <point x="867" y="1089"/>
      <point x="869" y="1082" type="curve" smooth="yes"/>
      <point x="871" y="777" type="line"/>
      <point x="1401" y="789" type="line"/>
      <point x="1399" y="969" type="line" smooth="yes"/>
      <point x="1397" y="1302"/>
      <point x="1036" y="1302"/>
      <point x="778" y="1302" type="curve" smooth="yes"/>
      <point x="471" y="1302"/>
      <point x="136" y="1280"/>
    </contour>
  </outline>
</glyph>
<glyph name="f" format="1">
  <advance width="1185"/>
  <unicode hex="0066"/>
  <outline>
    <contour>
      <point x="596" y="1307" type="move" name="top"/>
    </contour>
    <contour>
      <point x="285" y="1280" type="curve"/>
      <point x="85" y="1280" type="line"/>
      <point x="85" y="1087" type="line"/>
      <point x="285" y="1087" type="line"/>
      <point x="285" y="0" type="line"/>
      <point x="818" y="0" type="line"/>
      <point x="818" y="1087" type="line"/>
      <point x="1121" y="1087" type="line"/>
      <point x="1121" y="1280" type="line"/>
      <point x="818" y="1280" type="line"/>
      <point x="818" y="1453" type="line" smooth="yes"/>
      <point x="818" y="1465"/>
      <point x="899" y="1466"/>
      <point x="906" y="1466" type="curve" smooth="yes"/>
      <point x="1113" y="1466" type="line"/>
      <point x="1113" y="1665" type="line"/>
      <point x="1001" y="1699"/>
      <point x="882" y="1710"/>
      <point x="767" y="1710" type="curve" smooth="yes"/>
      <point x="449" y="1710"/>
      <point x="285" y="1603"/>
    </contour>
  </outline>
</glyph>
<glyph name="i" format="1">
  <advance width="948"/>
  <unicode hex="0069"/>
  <outline>
    <component base="dotaccent" xOffset="-139"/>
    <component base="dotlessi" xOffset="2"/>
    <contour>
      <point x="330" y="0" type="move" name="ogonek"/>
    </contour>
  </outline>
</glyph>
<glyph name="l" format="1">
  <advance width="920"/>
  <unicode hex="006C"/>
  <outline>
    <contour>
      <point x="459" y="0" type="move" name="bottom"/>
    </contour>
    <contour>
      <point x="468" y="1001" type="move" name="mid"/>
    </contour>
    <contour>
      <point x="459" y="0" type="move" name="bot"/>
    </contour>
    <contour>
      <point x="562" y="1280" type="move" name="caron.alt"/>
    </contour>
    <contour>
      <point x="480" y="1585" type="move" name="top"/>
    </contour>
    <contour>
      <point x="202" y="1627" type="line"/>
      <point x="202" y="0" type="line"/>
      <point x="735" y="0" type="line"/>
      <point x="735" y="1627" type="line"/>
    </contour>
  </outline>
</glyph>
<glyph name="r" format="1">
  <advance width="1151"/>
  <unicode hex="0072"/>
  <outline>
    <contour>
      <point x="469" y="0" type="move" name="bot"/>
    </contour>
    <contour>
      <point x="549" y="1280" type="move" name="top"/>
    </contour>
    <contour>
      <point x="672" y="1135" type="curve"/>
      <point x="633" y="1280" type="line"/>
      <point x="178" y="1280" type="line"/>
      <point x="177" y="0" type="line"/>
      <point x="710" y="0" type="line"/>
      <point x="710" y="718" type="line" smooth="yes"/>
      <point x="710" y="874" type="line" smooth="yes"/>
      <point x="710" y="895"/>
      <point x="981" y="950"/>
      <point x="996" y="948" type="curve"/>
      <point x="997" y="1305" type="line"/>
      <point x="847" y="1303"/>
      <point x="717" y="1243"/>
    </contour>
  </outline>
</glyph>
<glyph name="t" format="1">
  <advance width="1087"/>
  <unicode hex="0074"/>
  <outline>
    <contour>
      <point x="524" y="745" type="move" name="mid"/>
    </contour>
    <contour>
      <point x="568" y="0" type="move" name="bot"/>
    </contour>
    <contour>
      <point x="542" y="1296" type="move" name="caron.alt"/>
    </contour>
    <contour>
      <point x="523" y="1560" type="move" name="top"/>
    </contour>
    <contour>
      <point x="242" y="1580" type="line"/>
      <point x="242" y="1280" type="line"/>
      <point x="102" y="1280" type="line"/>
      <point x="102" y="1089" type="line"/>
      <point x="242" y="1089" type="line"/>
      <point x="242" y="347" type="line" smooth="yes"/>
      <point x="242" y="38"/>
      <point x="391" y="-24"/>
      <point x="775" y="-24" type="curve" smooth="yes"/>
      <point x="881" y="-24"/>
      <point x="977" y="-7"/>
      <point x="985" y="-6" type="curve"/>
      <point x="986" y="215" type="line"/>
      <point x="867" y="212"/>
      <point x="775" y="230"/>
      <point x="775" y="319" type="curve" smooth="yes"/>
      <point x="775" y="1089" type="line"/>
      <point x="941" y="1089" type="line"/>
      <point x="941" y="1280" type="line"/>
      <point x="775" y="1280" type="line"/>
      <point x="775" y="1580" type="line"/>
    </contour>
  </outline>
</glyph>
<glyph name="u" format="1">
  <advance width="1586"/>
  <unicode hex="0075"/>
  <outline>
    <contour>
      <point x="1112" y="0" type="move" name="ogonek"/>
    </contour>
    <contour>
      <point x="785" y="1280" type="move" name="top"/>
    </contour>
    <contour>
      <point x="878" y="1280" type="line"/>
      <point x="878" y="214" type="line" smooth="yes"/>
      <point x="878" y="199"/>
      <point x="806" y="187"/>
      <point x="779" y="187" type="curve" smooth="yes"/>
      <point x="753" y="187"/>
      <point x="681" y="193"/>
      <point x="681" y="221" type="curve" smooth="yes"/>
      <point x="681" y="1280" type="line"/>
      <point x="147" y="1280" type="line"/>
      <point x="147" y="365" type="line" smooth="yes"/>
      <point x="147" y="105"/>
      <point x="286" y="-21"/>
      <point x="560" y="-22" type="curve" smooth="yes"/>
      <point x="711" y="-22"/>
      <point x="843" y="29"/>
      <point x="900" y="115" type="curve"/>
      <point x="935" y="0" type="line"/>
      <point x="1412" y="0" type="line"/>
      <point x="1412" y="1280" type="line"/>
    </contour>
  </outline>
</glyph>
<glyph name="v" format="1">
  <advance width="1475"/>
  <unicode hex="0076"/>
  <outline>
    <contour>
      <point x="874" y="1280" type="line"/>
      <point x="753" y="338" type="line"/>
      <point x="741" y="338" type="line"/>
      <point x="591" y="1280" type="line"/>
      <point x="77" y="1280" type="line"/>
      <point x="366" y="0" type="line"/>
      <point x="1102" y="0" type="line"/>
      <point x="1390" y="1280" type="line"/>
    </contour>
  </outline>
</glyph>
<glyph name="w" format="1">
  <advance width="1978"/>
  <unicode hex="0077"/>
  <outline>
    <contour>
      <point x="986" y="0" type="move" name="bot"/>
    </contour>
    <contour>
      <point x="985" y="1280" type="move" name="top"/>
    </contour>
    <contour>
      <point x="241" y="0" type="line"/>
      <point x="882" y="0" type="line"/>
      <point x="979" y="807" type="line"/>
      <point x="989" y="807" type="line"/>
      <point x="1090" y="0" type="line"/>
      <point x="1732" y="0" type="line"/>
      <point x="1936" y="1280" type="line"/>
      <point x="1472" y="1280" type="line"/>
      <point x="1368" y="368" type="line"/>
      <point x="1355" y="368" type="line"/>
      <point x="1244" y="1280" type="line"/>
      <point x="736" y="1280" type="line"/>
      <point x="622" y="368" type="line"/>
      <point x="609" y="368" type="line"/>
      <point x="502" y="1280" type="line"/>
      <point x="34" y="1280" type="line"/>
    </contour>
  </outline>
</glyph>
<glyph name="x" format="1">
  <advance width="1441"/>
  <unicode hex="0078"/>
  <outline>
    <contour>
      <point x="70" y="0" type="line"/>
      <point x="518" y="0" type="line"/>
      <point x="728" y="369" type="line"/>
      <point x="936" y="559" type="line"/>
      <point x="1362" y="1280" type="line"/>
      <point x="920" y="1280" type="line"/>
      <point x="723" y="911" type="line"/>
      <point x="497" y="728" type="line"/>
    </contour>
    <contour>
      <point x="841" y="0" type="line"/>
      <point x="1372" y="0" type="line"/>
      <point x="615" y="1280" type="line"/>
      <point x="80" y="1280" type="line"/>
    </contour>
  </outline>
</glyph>
<glyph name="y" format="1">
  <advance width="1454"/>
  <unicode hex="0079"/>
  <outline>
    <contour>
      <point x="724" y="0" type="move" name="bot"/>
    </contour>
    <contour>
      <point x="725" y="1280" type="move" name="top"/>
    </contour>
    <contour>
      <point x="874" y="1280" type="line"/>
      <point x="755" y="360" type="line"/>
      <point x="747" y="360" type="line"/>
      <point x="564" y="1280" type="line"/>
      <point x="70" y="1280" type="line"/>
      <point x="446" y="38" type="line"/>
      <point x="449" y="11"/>
      <point x="451" y="-10"/>
      <point x="448" y="-27" type="curve" smooth="yes"/>
      <point x="446" y="-74"/>
      <point x="412" y="-92"/>
      <point x="356" y="-92" type="curve" smooth="yes"/>
      <point x="302" y="-92"/>
      <point x="228" y="-75"/>
      <point x="144" y="-52" type="curve"/>
      <point x="104" y="-345" type="line"/>
      <point x="226" y="-378"/>
      <point x="429" y="-406"/>
      <point x="540" y="-406" type="curve" smooth="yes"/>
      <point x="786" y="-406"/>
      <point x="975" y="-322"/>
      <point x="1059" y="-7" type="curve"/>
      <point x="1374" y="1280" type="line"/>
    </contour>
  </outline>
</glyph>
<glyph name="sterling" format="1">
  <advance width="1691"/>
  <unicode hex="00A3"/>
  <outline>
    <contour>
      <point x="123" y="0" type="line" smooth="yes"/>
      <point x="331" y="0" type="line" smooth="yes"/>
      <point x="551" y="3"/>
      <point x="688" y="25"/>
      <point x="782" y="131" type="curve"/>
      <point x="836" y="67"/>
      <point x="947" y="0"/>
      <point x="1113" y="0" type="curve" smooth="yes"/>
      <point x="1413" y="0"/>
      <point x="1541" y="102"/>
      <point x="1545" y="365" type="curve" smooth="yes"/>
      <point x="1546" y="371"/>
      <point x="1547" y="539"/>
      <point x="1548" y="550" type="curve"/>
      <point x="1009" y="552" type="line"/>
      <point x="1008" y="265" type="line" smooth="yes"/>
      <point x="1007" y="258"/>
      <point x="938" y="257"/>
      <point x="922" y="257" type="curve" smooth="yes"/>
      <point x="899" y="257"/>
      <point x="828" y="259"/>
      <point x="827" y="264" type="curve"/>
      <point x="828" y="276"/>
      <point x="829" y="716"/>
      <point x="829" y="716" type="curve"/>
      <point x="1261" y="716" type="line"/>
      <point x="1261" y="930" type="line"/>
      <point x="829" y="930" type="line"/>
      <point x="829" y="942"/>
      <point x="827" y="1335"/>
      <point x="827" y="1350" type="curve" smooth="yes"/>
      <point x="827" y="1360"/>
      <point x="876" y="1365"/>
      <point x="906" y="1365" type="curve" smooth="yes"/>
      <point x="929" y="1365"/>
      <point x="982" y="1364"/>
      <point x="983" y="1357" type="curve" smooth="yes"/>
      <point x="984" y="1349"/>
      <point x="984" y="1076"/>
      <point x="984" y="1068" type="curve"/>
      <point x="1525" y="1071" type="line"/>
      <point x="1524" y="1265"/>
      <point x="1523" y="1299"/>
      <point x="1519" y="1332" type="curve" smooth="yes"/>
      <point x="1497" y="1583"/>
      <point x="1223" y="1623"/>
      <point x="928" y="1623" type="curve" smooth="yes"/>
      <point x="505" y="1623"/>
      <point x="281" y="1485"/>
      <point x="281" y="1079" type="curve" smooth="yes"/>
      <point x="281" y="1070"/>
      <point x="282" y="944"/>
      <point x="282" y="931" type="curve"/>
      <point x="125" y="931" type="line"/>
      <point x="125" y="717" type="line"/>
      <point x="283" y="717" type="line"/>
      <point x="283" y="368" type="line" smooth="yes"/>
      <point x="283" y="287"/>
      <point x="202" y="264"/>
      <point x="125" y="255" type="curve"/>
    </contour>
  </outline>
</glyph>
<glyph name="yen" format="1">
  <advance width="1612"/>
  <unicode hex="00A5"/>
  <outline>
    <contour>
      <point x="521" y="0" type="line"/>
      <point x="1085" y="0" type="line"/>
      <point x="1085" y="295" type="line"/>
      <point x="1422" y="295" type="line"/>
      <point x="1422" y="433" type="line"/>
      <point x="1085" y="433" type="line"/>
      <point x="1132" y="578" type="line"/>
      <point x="1426" y="578" type="line"/>
      <point x="1426" y="718" type="line"/>
      <point x="1188" y="718" type="line"/>
      <point x="1528" y="1585" type="line"/>
      <point x="1006" y="1585" type="line"/>
      <point x="815" y="806" type="line"/>
      <point x="602" y="1585" type="line"/>
      <point x="76" y="1585" type="line"/>
      <point x="421" y="718" type="line"/>
      <point x="174" y="718" type="line"/>
      <point x="174" y="578" type="line"/>
      <point x="477" y="578" type="line"/>
      <point x="521" y="433" type="line"/>
      <point x="179" y="433" type="line"/>
      <point x="179" y="295" type="line"/>
      <point x="521" y="295" type="line"/>
    </contour>
  </outline>
</glyph>
<glyph name="logicalnot" format="1">
  <advance width="1491"/>
  <unicode hex="00AC"/>
  <outline>
    <contour>
      <point x="1047" y="296" type="line"/>
      <point x="1268" y="296" type="line"/>
      <point x="1268" y="1074" type="line"/>
      <point x="189" y="1074" type="line"/>
      <point x="189" y="777" type="line"/>
      <point x="1047" y="777" type="line"/>
    </contour>
  </outline>
</glyph>
<glyph name="registered" format="1">
  <advance width="2082"/>
  <unicode hex="00AE"/>
  <outline>
    <contour>
      <point x="620" y="278" type="line"/>
      <point x="983" y="278" type="line"/>
      <point x="983" y="754" type="line"/>
      <point x="1044" y="754" type="line" smooth="yes"/>
      <point x="1059" y="754"/>
      <point x="1100" y="750"/>
      <point x="1100" y="732" type="curve" smooth="yes"/>
      <point x="1100" y="278" type="line"/>
      <point x="1454" y="278" type="line"/>
      <point x="1454" y="640" type="line" smooth="yes"/>
      <point x="1454" y="748"/>
      <point x="1408" y="817"/>
      <point x="1321" y="824" type="curve"/>
      <point x="1320" y="856" type="line"/>
      <point x="1405" y="865"/>
      <point x="1458" y="938"/>
      <point x="1458" y="1066" type="curve" smooth="yes"/>
      <point x="1458" y="1151" type="line" smooth="yes"/>
      <point x="1458" y="1406"/>
      <point x="1278" y="1419"/>
      <point x="1112" y="1419" type="curve" smooth="yes"/>
      <point x="620" y="1419" type="line"/>
    </contour>
    <contour>
      <point x="1036" y="62" type="curve" smooth="yes"/>
      <point x="631" y="62"/>
      <point x="418" y="166"/>
      <point x="418" y="542" type="curve" smooth="yes"/>
      <point x="418" y="1093" type="line" smooth="yes"/>
      <point x="418" y="1465"/>
      <point x="628" y="1568"/>
      <point x="1037" y="1568" type="curve" smooth="yes"/>
      <point x="1383" y="1568"/>
      <point x="1655" y="1491"/>
      <point x="1655" y="1138" type="curve" smooth="yes"/>
      <point x="1655" y="495" type="line" smooth="yes"/>
      <point x="1655" y="153"/>
      <point x="1406" y="62"/>
    </contour>
    <contour>
      <point x="1038" y="-101" type="curve" smooth="yes"/>
      <point x="1482" y="-101"/>
      <point x="1883" y="19"/>
      <point x="1883" y="546" type="curve" smooth="yes"/>
      <point x="1883" y="1094" type="line" smooth="yes"/>
      <point x="1883" y="1596"/>
      <point x="1539" y="1737"/>
      <point x="1037" y="1737" type="curve" smooth="yes"/>
      <point x="595" y="1737"/>
      <point x="190" y="1622"/>
      <point x="190" y="1095" type="curve" smooth="yes"/>
      <point x="190" y="546" type="line" smooth="yes"/>
      <point x="190" y="44"/>
      <point x="533" y="-101"/>
    </contour>
    <contour>
      <point x="983" y="907" type="line"/>
      <point x="983" y="1265" type="line"/>
      <point x="1044" y="1265" type="line" smooth="yes"/>
      <point x="1057" y="1265"/>
      <point x="1100" y="1264"/>
      <point x="1100" y="1248" type="curve" smooth="yes"/>
      <point x="1100" y="924" type="line" smooth="yes"/>
      <point x="1100" y="909"/>
      <point x="1059" y="907"/>
      <point x="1040" y="907" type="curve" smooth="yes"/>
    </contour>
  </outline>
</glyph>
<glyph name="macron" format="1">
  <advance width="1264"/>
  <unicode hex="00AF"/>
  <outline>
    <contour>
      <point x="747" y="1600" type="move" name="_mid"/>
    </contour>
    <contour>
      <point x="742" y="1280" type="move" name="_top"/>
    </contour>
    <contour>
      <point x="341" y="1709" type="line"/>
      <point x="341" y="1488" type="line"/>
      <point x="1150" y="1488" type="line"/>
      <point x="1150" y="1709" type="line"/>
    </contour>
  </outline>
</glyph>
<glyph name="threesuperior" format="1">
  <advance width="1249"/>
  <unicode hex="00B3"/>
  <outline>
    <contour>
      <point x="628" y="503" type="curve" smooth="yes"/>
      <point x="940" y="503"/>
      <point x="1055" y="593"/>
      <point x="1055" y="839" type="curve" smooth="yes"/>
      <point x="1055" y="947"/>
      <point x="1013" y="1034"/>
      <point x="919" y="1069" type="curve"/>
      <point x="1003" y="1104"/>
      <point x="1053" y="1173"/>
      <point x="1053" y="1281" type="curve" smooth="yes"/>
      <point x="1053" y="1528"/>
      <point x="920" y="1605"/>
      <point x="627" y="1605" type="curve" smooth="yes"/>
      <point x="341" y="1605"/>
      <point x="207" y="1522"/>
      <point x="207" y="1259" type="curve" smooth="yes"/>
      <point x="207" y="1207" type="line"/>
      <point x="554" y="1207" type="line"/>
      <point x="554" y="1413" type="line" smooth="yes"/>
      <point x="555" y="1429"/>
      <point x="607" y="1431"/>
      <point x="626" y="1431" type="curve" smooth="yes"/>
      <point x="644" y="1431"/>
      <point x="698" y="1428"/>
      <point x="698" y="1415" type="curve" smooth="yes"/>
      <point x="698" y="1402"/>
      <point x="700" y="1142"/>
      <point x="693" y="1142" type="curve" smooth="yes"/>
      <point x="513" y="1142" type="line"/>
      <point x="513" y="997" type="line"/>
      <point x="693" y="997" type="line" smooth="yes"/>
      <point x="699" y="997"/>
      <point x="698" y="711"/>
      <point x="698" y="700" type="curve" smooth="yes"/>
      <point x="698" y="686"/>
      <point x="642" y="681"/>
      <point x="625" y="681" type="curve" smooth="yes"/>
      <point x="603" y="681"/>
      <point x="554" y="686"/>
      <point x="554" y="701" type="curve" smooth="yes"/>
      <point x="554" y="930" type="line"/>
      <point x="207" y="930" type="line"/>
      <point x="207" y="871" type="line" smooth="yes"/>
      <point x="207" y="621"/>
      <point x="329" y="503"/>
    </contour>
  </outline>
</glyph>
<glyph name="acute" format="1">
  <advance width="1225"/>
  <unicode hex="00B4"/>
  <outline>
    <contour>
      <point x="515" y="1280" type="move" name="_top"/>
    </contour>
    <contour>
      <point x="424" y="1457" type="curve" smooth="yes"/>
      <point x="609" y="1513"/>
      <point x="904" y="1592"/>
      <point x="1000" y="1647" type="curve" smooth="yes"/>
      <point x="1078" y="1691"/>
      <point x="1112" y="1758"/>
      <point x="1112" y="1821" type="curve" smooth="yes"/>
      <point x="1112" y="1911"/>
      <point x="1044" y="1991"/>
      <point x="945" y="1991" type="curve" smooth="yes"/>
      <point x="907" y="1991"/>
      <point x="867" y="1980"/>
      <point x="824" y="1954" type="curve" smooth="yes"/>
      <point x="729" y="1899"/>
      <point x="514" y="1687"/>
      <point x="368" y="1553" type="curve" smooth="yes"/>
      <point x="336" y="1525"/>
      <point x="331" y="1497"/>
      <point x="343" y="1478" type="curve" smooth="yes"/>
      <point x="355" y="1456"/>
      <point x="389" y="1444"/>
    </contour>
  </outline>
</glyph>
<glyph name="paragraph" format="1">
  <advance width="1558"/>
  <unicode hex="00B6"/>
  <outline>
    <contour>
      <point x="790" y="1585" type="line" smooth="yes"/>
      <point x="449" y="1585"/>
      <point x="178" y="1502"/>
      <point x="178" y="1110" type="curve" smooth="yes"/>
      <point x="178" y="795"/>
      <point x="379" y="674"/>
      <point x="710" y="674" type="curve"/>
      <point x="710" y="-23" type="line"/>
      <point x="958" y="-23" type="line"/>
      <point x="958" y="731" type="line"/>
      <point x="1077" y="731" type="line"/>
      <point x="1077" y="-23" type="line"/>
      <point x="1323" y="-23" type="line"/>
      <point x="1323" y="1585" type="line"/>
    </contour>
  </outline>
</glyph>
<glyph name="periodcentered" format="1">
  <advance width="1219"/>
  <unicode hex="00B7"/>
  <outline>
    <contour>
      <point x="328" y="1069" type="move" name="_mid"/>
    </contour>
    <contour>
      <point x="830" y="902" type="curve" smooth="yes"/>
      <point x="915" y="902"/>
      <point x="995" y="960"/>
      <point x="995" y="1073" type="curve" smooth="yes"/>
      <point x="995" y="1185"/>
      <point x="914" y="1244"/>
      <point x="830" y="1244" type="curve" smooth="yes"/>
      <point x="746" y="1244"/>
      <point x="665" y="1185"/>
      <point x="665" y="1073" type="curve" smooth="yes"/>
      <point x="665" y="961"/>
      <point x="747" y="902"/>
    </contour>
  </outline>
</glyph>
<glyph name="onesuperior" format="1">
  <advance width="919"/>
  <unicode hex="00B9"/>
  <outline>
    <contour>
      <point x="292" y="538" type="line"/>
      <point x="666" y="538" type="line"/>
      <point x="666" y="1585" type="line"/>
      <point x="374" y="1585" type="line"/>
      <point x="317" y="1550"/>
      <point x="238" y="1530"/>
      <point x="148" y="1530" type="curve"/>
      <point x="148" y="1388" type="line"/>
      <point x="292" y="1388" type="line"/>
    </contour>
  </outline>
</glyph>
<glyph name="onehalf" format="1">
  <advance width="2633"/>
  <unicode hex="00BD"/>
  <outline>
    <contour>
      <point x="1697" y="0" type="line"/>
      <point x="2493" y="0" type="line"/>
      <point x="2493" y="192" type="line"/>
      <point x="2043" y="192" type="line"/>
      <point x="2043" y="269"/>
      <point x="2115" y="312"/>
      <point x="2200" y="347" type="curve" smooth="yes"/>
      <point x="2366" y="420"/>
      <point x="2531" y="500"/>
      <point x="2531" y="742" type="curve" smooth="yes"/>
      <point x="2531" y="1008"/>
      <point x="2378" y="1075"/>
      <point x="2116" y="1075" type="curve" smooth="yes"/>
      <point x="1873" y="1075"/>
      <point x="1690" y="1014"/>
      <point x="1696" y="744" type="curve" smooth="yes"/>
      <point x="1697" y="702" type="line"/>
      <point x="2044" y="704" type="line"/>
      <point x="2044" y="884" type="line" smooth="yes"/>
      <point x="2044" y="892"/>
      <point x="2090" y="898"/>
      <point x="2110" y="898" type="curve" smooth="yes"/>
      <point x="2129" y="898"/>
      <point x="2177" y="894"/>
      <point x="2177" y="886" type="curve" smooth="yes"/>
      <point x="2177" y="741" type="line" smooth="yes"/>
      <point x="2177" y="683"/>
      <point x="2104" y="654"/>
      <point x="2030" y="627" type="curve" smooth="yes"/>
      <point x="1827" y="548"/>
      <point x="1697" y="436"/>
      <point x="1697" y="174" type="curve" smooth="yes"/>
    </contour>
    <contour>
      <point x="219" y="545" type="line"/>
      <point x="593" y="545" type="line"/>
      <point x="593" y="1585" type="line"/>
      <point x="301" y="1585" type="line"/>
      <point x="244" y="1550"/>
      <point x="165" y="1530"/>
      <point x="75" y="1530" type="curve"/>
      <point x="75" y="1388" type="line"/>
      <point x="219" y="1388" type="line"/>
    </contour>
    <contour>
      <point x="811" y="0" type="line"/>
      <point x="1135" y="0" type="line"/>
      <point x="1601" y="1588" type="line"/>
      <point x="1187" y="1588" type="line"/>
    </contour>
  </outline>
</glyph>
<glyph name="threequarters" format="1">
  <advance width="2833"/>
  <unicode hex="00BE"/>
  <outline>
    <contour>
      <point x="2374" y="0" type="line"/>
      <point x="2716" y="0" type="line"/>
      <point x="2716" y="636" type="line"/>
      <point x="2374" y="636" type="line"/>
      <point x="2374" y="405" type="line"/>
      <point x="2219" y="405" type="line"/>
      <point x="2219" y="438" type="line"/>
      <point x="2405" y="1048" type="line"/>
      <point x="2041" y="1048" type="line"/>
      <point x="1851" y="437" type="line"/>
      <point x="1851" y="170" type="line"/>
      <point x="2374" y="170" type="line"/>
    </contour>
    <contour>
      <point x="1059" y="0" type="line"/>
      <point x="1383" y="0" type="line"/>
      <point x="1849" y="1588" type="line"/>
      <point x="1435" y="1588" type="line"/>
    </contour>
    <contour>
      <point x="563" y="502" type="curve" smooth="yes"/>
      <point x="874" y="502"/>
      <point x="990" y="592"/>
      <point x="990" y="838" type="curve" smooth="yes"/>
      <point x="990" y="946"/>
      <point x="948" y="1033"/>
      <point x="854" y="1068" type="curve"/>
      <point x="938" y="1103"/>
      <point x="988" y="1172"/>
      <point x="988" y="1280" type="curve" smooth="yes"/>
      <point x="988" y="1527"/>
      <point x="855" y="1604"/>
      <point x="562" y="1604" type="curve" smooth="yes"/>
      <point x="276" y="1604"/>
      <point x="141" y="1521"/>
      <point x="141" y="1258" type="curve" smooth="yes"/>
      <point x="141" y="1206" type="line"/>
      <point x="489" y="1206" type="line"/>
      <point x="489" y="1412" type="line" smooth="yes"/>
      <point x="489" y="1428"/>
      <point x="542" y="1430"/>
      <point x="560" y="1430" type="curve" smooth="yes"/>
      <point x="579" y="1430"/>
      <point x="633" y="1427"/>
      <point x="633" y="1414" type="curve" smooth="yes"/>
      <point x="633" y="1401"/>
      <point x="634" y="1141"/>
      <point x="628" y="1141" type="curve" smooth="yes"/>
      <point x="447" y="1141" type="line"/>
      <point x="447" y="996" type="line"/>
      <point x="628" y="996" type="line" smooth="yes"/>
      <point x="633" y="996"/>
      <point x="633" y="710"/>
      <point x="633" y="699" type="curve" smooth="yes"/>
      <point x="633" y="685"/>
      <point x="576" y="680"/>
      <point x="560" y="680" type="curve" smooth="yes"/>
      <point x="537" y="680"/>
      <point x="488" y="685"/>
      <point x="489" y="700" type="curve" smooth="yes"/>
      <point x="489" y="929" type="line"/>
      <point x="141" y="929" type="line"/>
      <point x="141" y="870" type="line" smooth="yes"/>
      <point x="141" y="620"/>
      <point x="263" y="502"/>
    </contour>
  </outline>
</glyph>
<glyph name="AE" format="1">
  <advance width="1914"/>
  <unicode hex="00C6"/>
  <outline>
    <contour>
      <point x="1110" y="1585" type="move" name="top"/>
    </contour>
    <contour>
      <point x="0" y="0" type="line"/>
      <point x="585" y="0" type="line"/>
      <point x="721" y="351" type="line"/>
      <point x="976" y="351" type="line"/>
      <point x="976" y="0" type="line"/>
      <point x="1899" y="0" type="line"/>
      <point x="1899" y="236" type="line"/>
      <point x="1526" y="236" type="line"/>
      <point x="1526" y="710" type="line"/>
      <point x="1865" y="710" type="line"/>
      <point x="1865" y="951" type="line"/>
      <point x="1526" y="951" type="line"/>
      <point x="1526" y="1351" type="line"/>
      <point x="1897" y="1351" type="line"/>
      <point x="1897" y="1585" type="line"/>
      <point x="680" y="1585" type="line"/>
    </contour>
    <contour>
      <point x="794" y="573" type="line"/>
      <point x="976" y="1082" type="line"/>
      <point x="976" y="573" type="line"/>
    </contour>
  </outline>
</glyph>
<glyph name="multiply" format="1">
  <advance width="1387"/>
  <unicode hex="00D7"/>
  <outline>
    <contour>
      <point x="433" y="32" type="curve"/>
      <point x="688" y="305" type="line"/>
      <point x="942" y="32" type="line"/>
      <point x="1268" y="380" type="line"/>
      <point x="1014" y="651" type="line"/>
      <point x="1268" y="924" type="line"/>
      <point x="942" y="1270" type="line"/>
      <point x="688" y="998" type="line"/>
      <point x="433" y="1270" type="line"/>
      <point x="426" y="1263"/>
      <point x="110" y="927"/>
      <point x="108" y="924" type="curve"/>
      <point x="128" y="900"/>
      <point x="361" y="652"/>
      <point x="362" y="651" type="curve"/>
      <point x="108" y="380" type="line"/>
      <point x="114" y="372"/>
      <point x="430" y="35"/>
    </contour>
  </outline>
</glyph>
<glyph name="germandbls" format="1">
  <advance width="1526"/>
  <unicode hex="00DF"/>
  <outline>
    <contour>
      <point x="172" y="-203" type="line"/>
      <point x="638" y="-201" type="line"/>
      <point x="638" y="1330" type="line" smooth="yes"/>
      <point x="638" y="1355"/>
      <point x="749" y="1356"/>
      <point x="770" y="1356" type="curve" smooth="yes"/>
      <point x="789" y="1356"/>
      <point x="899" y="1353"/>
      <point x="899" y="1336" type="curve" smooth="yes"/>
      <point x="899" y="1322"/>
      <point x="899" y="971"/>
      <point x="890" y="971" type="curve" smooth="yes"/>
      <point x="765" y="971" type="line"/>
      <point x="765" y="749" type="line"/>
      <point x="890" y="749" type="line" smooth="yes"/>
      <point x="907" y="749"/>
      <point x="907" y="491"/>
      <point x="907" y="468" type="curve" smooth="yes"/>
      <point x="906" y="443"/>
      <point x="903" y="191"/>
      <point x="886" y="191" type="curve" smooth="yes"/>
      <point x="738" y="191" type="line"/>
      <point x="738" y="-33" type="line"/>
      <point x="838" y="-33" type="line" smooth="yes"/>
      <point x="1113" y="-33"/>
      <point x="1373" y="-5"/>
      <point x="1373" y="270" type="curve" smooth="yes"/>
      <point x="1373" y="545" type="line" smooth="yes"/>
      <point x="1373" y="757"/>
      <point x="1236" y="855"/>
      <point x="1043" y="866" type="curve"/>
      <point x="1230" y="891"/>
      <point x="1303" y="981"/>
      <point x="1303" y="1194" type="curve" smooth="yes"/>
      <point x="1303" y="1496"/>
      <point x="1153" y="1585"/>
      <point x="772" y="1585" type="curve" smooth="yes"/>
      <point x="438" y="1585"/>
      <point x="172" y="1533"/>
      <point x="172" y="1209" type="curve" smooth="yes"/>
    </contour>
  </outline>
</glyph>
<glyph name="ae" format="1">
  <advance width="2148"/>
  <unicode hex="00E6"/>
  <outline>
    <contour>
      <point x="1045" y="1280" type="move" name="top"/>
    </contour>
    <contour>
      <point x="561" y="-34" type="curve" smooth="yes"/>
      <point x="771" y="-34"/>
      <point x="930" y="5"/>
      <point x="1054" y="86" type="curve"/>
      <point x="1136" y="16"/>
      <point x="1246" y="-34"/>
      <point x="1406" y="-34" type="curve" smooth="yes"/>
      <point x="1745" y="-34"/>
      <point x="2011" y="14"/>
      <point x="2020" y="333" type="curve" smooth="yes"/>
      <point x="2022" y="337"/>
      <point x="2022" y="475"/>
      <point x="2022" y="482" type="curve"/>
      <point x="1493" y="484" type="line"/>
      <point x="1492" y="478"/>
      <point x="1493" y="249"/>
      <point x="1491" y="245" type="curve" smooth="yes"/>
      <point x="1489" y="241"/>
      <point x="1419" y="239"/>
      <point x="1408" y="239" type="curve" smooth="yes"/>
      <point x="1395" y="239"/>
      <point x="1324" y="241"/>
      <point x="1320" y="245" type="curve" smooth="yes"/>
      <point x="1317" y="250"/>
      <point x="1317" y="575"/>
      <point x="1317" y="600" type="curve"/>
      <point x="2026" y="600" type="line"/>
      <point x="2026" y="936" type="line" smooth="yes"/>
      <point x="2024" y="1274"/>
      <point x="1789" y="1323"/>
      <point x="1407" y="1323" type="curve" smooth="yes"/>
      <point x="1255" y="1323"/>
      <point x="1114" y="1270"/>
      <point x="1068" y="1209" type="curve"/>
      <point x="1031" y="1288"/>
      <point x="852" y="1322"/>
      <point x="707" y="1322" type="curve" smooth="yes"/>
      <point x="412" y="1322"/>
      <point x="131" y="1280"/>
      <point x="131" y="991" type="curve" smooth="yes"/>
      <point x="131" y="955"/>
      <point x="135" y="921"/>
      <point x="141" y="888" type="curve"/>
      <point x="628" y="906" type="line"/>
      <point x="628" y="913"/>
      <point x="628" y="1042"/>
      <point x="630" y="1045" type="curve" smooth="yes"/>
      <point x="633" y="1047"/>
      <point x="694" y="1048"/>
      <point x="706" y="1048" type="curve" smooth="yes"/>
      <point x="721" y="1048"/>
      <point x="782" y="1046"/>
      <point x="782" y="1039" type="curve" smooth="yes"/>
      <point x="782" y="765" type="line"/>
      <point x="450" y="765"/>
      <point x="71" y="772"/>
      <point x="71" y="385" type="curve" smooth="yes"/>
      <point x="71" y="91"/>
      <point x="260" y="-34"/>
    </contour>
    <contour>
      <point x="685" y="239" type="curve" smooth="yes"/>
      <point x="676" y="239"/>
      <point x="604" y="240"/>
      <point x="602" y="243" type="curve" smooth="yes"/>
      <point x="600" y="246"/>
      <point x="600" y="568"/>
      <point x="600" y="579" type="curve" smooth="yes"/>
      <point x="600" y="586"/>
      <point x="672" y="590"/>
      <point x="693" y="591" type="curve" smooth="yes"/>
      <point x="699" y="592"/>
      <point x="773" y="592"/>
      <point x="782" y="592" type="curve"/>
      <point x="782" y="258" type="line" smooth="yes"/>
      <point x="782" y="247"/>
      <point x="707" y="239"/>
    </contour>
    <contour>
      <point x="1317" y="786" type="line"/>
      <point x="1317" y="799"/>
      <point x="1316" y="1036"/>
      <point x="1319" y="1041" type="curve" smooth="yes"/>
      <point x="1322" y="1047"/>
      <point x="1393" y="1049"/>
      <point x="1407" y="1049" type="curve" smooth="yes"/>
      <point x="1421" y="1049"/>
      <point x="1490" y="1047"/>
      <point x="1490" y="1038" type="curve" smooth="yes"/>
      <point x="1491" y="1031"/>
      <point x="1491" y="794"/>
      <point x="1491" y="786" type="curve"/>
    </contour>
  </outline>
</glyph>
<glyph name="eth" format="1">
  <advance width="1527"/>
  <unicode hex="00F0"/>
  <outline>
    <contour>
      <point x="759" y="-36" type="curve" smooth="yes"/>
      <point x="1264" y="-36"/>
      <point x="1372" y="281"/>
      <point x="1372" y="772" type="curve" smooth="yes"/>
      <point x="1372" y="1145"/>
      <point x="1225" y="1386"/>
      <point x="1042" y="1557" type="curve"/>
      <point x="1209" y="1677" type="line"/>
      <point x="1139" y="1794" type="line"/>
      <point x="934" y="1648" type="line"/>
      <point x="821" y="1732"/>
      <point x="698" y="1797"/>
      <point x="551" y="1850" type="curve"/>
      <point x="347" y="1529" type="line"/>
      <point x="473" y="1471"/>
      <point x="534" y="1439"/>
      <point x="588" y="1406" type="curve"/>
      <point x="389" y="1264" type="line"/>
      <point x="458" y="1146" type="line"/>
      <point x="701" y="1318" type="line"/>
      <point x="758" y="1265"/>
      <point x="834" y="1185"/>
      <point x="835" y="1069" type="curve"/>
      <point x="833" y="1079"/>
      <point x="695" y="1084"/>
      <point x="673" y="1084" type="curve" smooth="yes"/>
      <point x="291" y="1084"/>
      <point x="142" y="912"/>
      <point x="136" y="565" type="curve" smooth="yes"/>
      <point x="136" y="511" type="line" smooth="yes"/>
      <point x="136" y="114"/>
      <point x="346" y="-36"/>
    </contour>
    <contour>
      <point x="752" y="225" type="curve" smooth="yes"/>
      <point x="725" y="225"/>
      <point x="666" y="225"/>
      <point x="666" y="236" type="curve" smooth="yes"/>
      <point x="666" y="817" type="line" smooth="yes"/>
      <point x="666" y="828"/>
      <point x="724" y="829"/>
      <point x="753" y="829" type="curve" smooth="yes"/>
      <point x="778" y="829"/>
      <point x="834" y="823"/>
      <point x="834" y="810" type="curve" smooth="yes"/>
      <point x="834" y="235" type="line" smooth="yes"/>
      <point x="834" y="226"/>
      <point x="779" y="225"/>
    </contour>
  </outline>
</glyph>
<glyph name="divide" format="1">
  <advance width="1155"/>
  <unicode hex="00F7"/>
  <outline>
    <contour>
      <point x="577" y="134" type="curve" smooth="yes"/>
      <point x="663" y="134"/>
      <point x="717" y="203"/>
      <point x="717" y="288" type="curve" smooth="yes"/>
      <point x="717" y="366"/>
      <point x="661" y="442"/>
      <point x="591" y="442" type="curve" smooth="yes"/>
      <point x="490" y="442"/>
      <point x="437" y="383"/>
      <point x="437" y="288" type="curve" smooth="yes"/>
      <point x="437" y="193"/>
      <point x="496" y="134"/>
    </contour>
    <contour>
      <point x="233" y="614" type="line"/>
      <point x="920" y="614" type="line"/>
      <point x="920" y="753" type="line"/>
      <point x="233" y="753" type="line"/>
    </contour>
    <contour>
      <point x="577" y="925" type="curve" smooth="yes"/>
      <point x="665" y="925"/>
      <point x="717" y="991"/>
      <point x="717" y="1079" type="curve" smooth="yes"/>
      <point x="717" y="1157"/>
      <point x="661" y="1233"/>
      <point x="591" y="1233" type="curve" smooth="yes"/>
      <point x="490" y="1233"/>
      <point x="437" y="1175"/>
      <point x="437" y="1079" type="curve" smooth="yes"/>
      <point x="437" y="984"/>
      <point x="495" y="925"/>
    </contour>
  </outline>
</glyph>
<glyph name="dotlessi" format="1">
  <advance width="942"/>
  <unicode hex="0131"/>
  <outline>
    <contour>
      <point x="508" y="0" type="move" name="ogonek"/>
    </contour>
    <contour>
      <point x="465" y="1280" type="move" name="top"/>
    </contour>
    <contour>
      <point x="210" y="1280" type="line"/>
      <point x="210" y="0" type="line"/>
      <point x="742" y="0" type="line"/>
      <point x="742" y="1280" type="line"/>
    </contour>
  </outline>
</glyph>
<glyph name="lslash" format="1">
  <advance width="932"/>
  <unicode hex="0142"/>
  <outline>
    <component base="l" xOffset="3"/>
    <contour>
      <point x="64" y="648" type="line"/>
      <point x="917" y="966" type="line"/>
      <point x="917" y="1285" type="line"/>
      <point x="64" y="969" type="line"/>
    </contour>
  </outline>
</glyph>
<glyph name="Eng" format="1">
  <advance width="1724"/>
  <unicode hex="014A"/>
  <outline>
    <contour>
      <point x="793" y="-600" type="line"/>
      <point x="1336" y="-600"/>
      <point x="1540" y="-466"/>
      <point x="1540" y="-58" type="curve" smooth="yes"/>
      <point x="1540" y="1585" type="line"/>
      <point x="1123" y="1585" type="line"/>
      <point x="1123" y="786" type="line"/>
      <point x="663" y="1585" type="line"/>
      <point x="177" y="1585" type="line"/>
      <point x="177" y="0" type="line"/>
      <point x="598" y="0" type="line"/>
      <point x="598" y="758" type="line"/>
      <point x="1063" y="8" type="line"/>
      <point x="1065" y="-255" type="line"/>
      <point x="1024" y="-289"/>
      <point x="942" y="-304"/>
      <point x="794" y="-304" type="curve"/>
    </contour>
  </outline>
</glyph>
<glyph name="OE" format="1">
  <advance width="1893"/>
  <unicode hex="0152"/>
  <outline>
    <contour>
      <point x="957" y="1585" type="move" name="top"/>
    </contour>
    <contour>
      <point x="752" y="-1" type="curve" smooth="yes"/>
      <point x="1816" y="0" type="line"/>
      <point x="1818" y="235" type="line"/>
      <point x="1442" y="235" type="line"/>
      <point x="1442" y="709" type="line"/>
      <point x="1786" y="709" type="line"/>
      <point x="1786" y="951" type="line"/>
      <point x="1442" y="951" type="line"/>
      <point x="1442" y="1352" type="line"/>
      <point x="1817" y="1352" type="line"/>
      <point x="1815" y="1585" type="line"/>
      <point x="752" y="1585" type="line" smooth="yes"/>
      <point x="362" y="1585"/>
      <point x="128" y="1537"/>
      <point x="128" y="1186" type="curve" smooth="yes"/>
      <point x="128" y="407" type="line" smooth="yes"/>
      <point x="128" y="45"/>
      <point x="348" y="-1"/>
    </contour>
    <contour>
      <point x="764" y="224" type="line" smooth="yes"/>
      <point x="740" y="224"/>
      <point x="679" y="227"/>
      <point x="677" y="245" type="curve" smooth="yes"/>
      <point x="675" y="258"/>
      <point x="675" y="1303"/>
      <point x="676" y="1336" type="curve" smooth="yes"/>
      <point x="676" y="1356"/>
      <point x="731" y="1360"/>
      <point x="764" y="1360" type="curve" smooth="yes"/>
      <point x="853" y="1360" type="line"/>
      <point x="853" y="224" type="line"/>
    </contour>
  </outline>
</glyph>
<glyph name="florin" format="1">
  <advance width="1059"/>
  <unicode hex="0192"/>
  <outline>
    <contour>
      <point x="377" y="-319" type="curve" smooth="yes"/>
      <point x="563" y="-315"/>
      <point x="590" y="-222"/>
      <point x="590" y="-56" type="curve" smooth="yes"/>
      <point x="590" y="757" type="line"/>
      <point x="788" y="757" type="line"/>
      <point x="788" y="887" type="line"/>
      <point x="590" y="887" type="line"/>
      <point x="589" y="1256" type="line" smooth="yes"/>
      <point x="589" y="1372"/>
      <point x="589" y="1392"/>
      <point x="720" y="1392" type="curve" smooth="yes"/>
      <point x="746" y="1392"/>
      <point x="772" y="1391"/>
      <point x="798" y="1389" type="curve"/>
      <point x="798" y="1543" type="line"/>
      <point x="735" y="1555"/>
      <point x="675" y="1561"/>
      <point x="622" y="1561" type="curve" smooth="yes"/>
      <point x="460" y="1561"/>
      <point x="391" y="1484"/>
      <point x="392" y="1259" type="curve" smooth="yes"/>
      <point x="393" y="887" type="line"/>
      <point x="231" y="887" type="line"/>
      <point x="231" y="757" type="line"/>
      <point x="393" y="757" type="line"/>
      <point x="393" y="-167" type="line"/>
      <point x="225" y="-167" type="line"/>
      <point x="225" y="-299" type="line"/>
      <point x="315" y="-315"/>
      <point x="349" y="-319"/>
    </contour>
  </outline>
</glyph>
<glyph name="apostrophemod" format="1">
  <advance width="971"/>
  <unicode hex="02BC"/>
  <outline>
    <contour>
      <point x="394" y="1513" type="curve" smooth="yes"/>
      <point x="647" y="1513"/>
      <point x="732" y="1729"/>
      <point x="732" y="1912" type="curve" smooth="yes"/>
      <point x="732" y="2037"/>
      <point x="667" y="2145"/>
      <point x="529" y="2145" type="curve" smooth="yes"/>
      <point x="428" y="2145"/>
      <point x="330" y="2078"/>
      <point x="330" y="1950" type="curve" smooth="yes"/>
      <point x="330" y="1825"/>
      <point x="414" y="1755"/>
      <point x="506" y="1746" type="curve"/>
      <point x="501" y="1668"/>
      <point x="429" y="1622"/>
      <point x="348" y="1621" type="curve"/>
      <point x="348" y="1516" type="line"/>
      <point x="363" y="1514"/>
      <point x="378" y="1513"/>
    </contour>
  </outline>
</glyph>
<glyph name="circumflex" format="1">
  <advance width="1266"/>
  <unicode hex="02C6"/>
  <outline>
    <contour>
      <point x="748" y="1280" type="move" name="_top"/>
    </contour>
    <contour>
      <point x="1141" y="1416" type="curve" smooth="yes"/>
      <point x="1162" y="1436"/>
      <point x="1166" y="1471"/>
      <point x="1142" y="1510" type="curve" smooth="yes"/>
      <point x="886" y="1909" type="line" smooth="yes"/>
      <point x="854" y="1958"/>
      <point x="801" y="1979"/>
      <point x="750" y="1979" type="curve" smooth="yes"/>
      <point x="697" y="1979"/>
      <point x="642" y="1956"/>
      <point x="612" y="1909" type="curve" smooth="yes"/>
      <point x="356" y="1510" type="line" smooth="yes"/>
      <point x="331" y="1470"/>
      <point x="337" y="1436"/>
      <point x="358" y="1417" type="curve" smooth="yes"/>
      <point x="380" y="1397"/>
      <point x="419" y="1392"/>
      <point x="453" y="1420" type="curve" smooth="yes"/>
      <point x="749" y="1655" type="line"/>
      <point x="1045" y="1420" type="line" smooth="yes"/>
      <point x="1080" y="1392"/>
      <point x="1119" y="1394"/>
    </contour>
  </outline>
</glyph>
<glyph name="breve" format="1">
  <advance width="1308"/>
  <unicode hex="02D8"/>
  <outline>
    <contour>
      <point x="775" y="1280" type="move" name="_top"/>
    </contour>
    <contour>
      <point x="943" y="1849" type="line"/>
      <point x="943" y="1727"/>
      <point x="892" y="1671"/>
      <point x="780" y="1671" type="curve" smooth="yes"/>
      <point x="669" y="1671"/>
      <point x="617" y="1727"/>
      <point x="617" y="1849" type="curve"/>
      <point x="336" y="1849" type="line"/>
      <point x="336" y="1557"/>
      <point x="475" y="1422"/>
      <point x="780" y="1422" type="curve" smooth="yes"/>
      <point x="1085" y="1422"/>
      <point x="1225" y="1557"/>
      <point x="1225" y="1849" type="curve"/>
    </contour>
  </outline>
</glyph>
<glyph name="dblgravecmb" format="1">
  <advance width="1712"/>
  <unicode hex="030F"/>
  <outline>
    <contour>
      <point x="1259" y="1280" type="move" name="_top"/>
    </contour>
    <contour>
      <point x="1024" y="1371" type="curve" smooth="yes"/>
      <point x="1054" y="1360"/>
      <point x="1084" y="1368"/>
      <point x="1099" y="1383" type="curve" smooth="yes"/>
      <point x="1118" y="1401"/>
      <point x="1117" y="1435"/>
      <point x="1081" y="1467" type="curve" smooth="yes"/>
      <point x="934" y="1601"/>
      <point x="719" y="1813"/>
      <point x="625" y="1868" type="curve" smooth="yes"/>
      <point x="582" y="1894"/>
      <point x="541" y="1905"/>
      <point x="504" y="1905" type="curve" smooth="yes"/>
      <point x="404" y="1905"/>
      <point x="337" y="1825"/>
      <point x="337" y="1735" type="curve" smooth="yes"/>
      <point x="337" y="1672"/>
      <point x="370" y="1605"/>
      <point x="448" y="1561" type="curve" smooth="yes"/>
      <point x="544" y="1506"/>
      <point x="840" y="1427"/>
    </contour>
    <contour>
      <point x="1690" y="1371" type="curve" smooth="yes"/>
      <point x="1721" y="1360"/>
      <point x="1752" y="1368"/>
      <point x="1767" y="1385" type="curve" smooth="yes"/>
      <point x="1784" y="1403"/>
      <point x="1782" y="1436"/>
      <point x="1747" y="1467" type="curve" smooth="yes"/>
      <point x="1600" y="1601"/>
      <point x="1385" y="1813"/>
      <point x="1290" y="1868" type="curve" smooth="yes"/>
      <point x="1248" y="1894"/>
      <point x="1207" y="1905"/>
      <point x="1170" y="1905" type="curve" smooth="yes"/>
      <point x="1070" y="1905"/>
      <point x="1003" y="1825"/>
      <point x="1003" y="1735" type="curve" smooth="yes"/>
      <point x="1003" y="1672"/>
      <point x="1036" y="1605"/>
      <point x="1114" y="1561" type="curve" smooth="yes"/>
      <point x="1210" y="1506"/>
      <point x="1505" y="1427"/>
    </contour>
  </outline>
</glyph>
<glyph name="commaturnedabovecomb" format="1">
  <advance width="971"/>
  <unicode hex="0312"/>
  <outline>
    <contour>
      <point x="546" y="1280" type="move" name="_top"/>
    </contour>
    <contour>
      <point x="548" y="1416" type="curve" smooth="yes"/>
      <point x="650" y="1416"/>
      <point x="748" y="1486"/>
      <point x="748" y="1612" type="curve" smooth="yes"/>
      <point x="748" y="1739"/>
      <point x="665" y="1807"/>
      <point x="572" y="1817" type="curve"/>
      <point x="578" y="1895"/>
      <point x="646" y="1942"/>
      <point x="725" y="1943" type="curve"/>
      <point x="725" y="2047" type="line"/>
      <point x="521" y="2047"/>
      <point x="342" y="1866"/>
      <point x="342" y="1654" type="curve" smooth="yes"/>
      <point x="342" y="1525"/>
      <point x="408" y="1416"/>
    </contour>
  </outline>
</glyph>
<glyph name="endash" format="1">
  <advance width="1287"/>
  <unicode hex="2013"/>
  <outline>
    <contour>
      <point x="224" y="473" type="line"/>
      <point x="1055" y="473" type="line"/>
      <point x="1055" y="884" type="line"/>
      <point x="224" y="884" type="line"/>
    </contour>
  </outline>
</glyph>
<glyph name="emdash" format="1">
  <advance width="1896"/>
  <unicode hex="2014"/>
  <outline>
    <contour>
      <point x="107" y="473" type="line"/>
      <point x="1776" y="473" type="line"/>
      <point x="1776" y="884" type="line"/>
      <point x="107" y="884" type="line"/>
    </contour>
  </outline>
</glyph>
<glyph name="quotesinglbase" format="1">
  <advance width="920"/>
  <unicode hex="201A"/>
  <outline>
    <contour>
      <point x="507" y="-343" type="curve" smooth="yes"/>
      <point x="548" y="-172"/>
      <point x="639" y="98"/>
      <point x="639" y="203" type="curve" smooth="yes"/>
      <point x="639" y="316"/>
      <point x="548" y="375"/>
      <point x="455" y="375" type="curve" smooth="yes"/>
      <point x="363" y="375"/>
      <point x="279" y="320"/>
      <point x="279" y="204" type="curve" smooth="yes"/>
      <point x="279" y="101"/>
      <point x="365" y="-167"/>
      <point x="406" y="-342" type="curve"/>
      <point x="416" y="-378"/>
      <point x="437" y="-395"/>
      <point x="457" y="-395" type="curve" smooth="yes"/>
      <point x="476" y="-395"/>
      <point x="499" y="-378"/>
    </contour>
  </outline>
</glyph>
<glyph name="quotedblleft" format="1">
  <advance width="1312"/>
  <unicode hex="201C"/>
  <outline>
    <contour>
      <point x="408" y="988" type="curve" smooth="yes"/>
      <point x="508" y="988"/>
      <point x="606" y="1056"/>
      <point x="606" y="1182" type="curve" smooth="yes"/>
      <point x="606" y="1308"/>
      <point x="524" y="1376"/>
      <point x="431" y="1385" type="curve"/>
      <point x="437" y="1465"/>
      <point x="505" y="1514"/>
      <point x="585" y="1515" type="curve"/>
      <point x="585" y="1620" type="line"/>
      <point x="478" y="1631"/>
      <point x="204" y="1437"/>
      <point x="204" y="1225" type="curve" smooth="yes"/>
      <point x="204" y="1095"/>
      <point x="268" y="988"/>
    </contour>
    <contour>
      <point x="907" y="988" type="curve" smooth="yes"/>
      <point x="1010" y="988"/>
      <point x="1106" y="1057"/>
      <point x="1106" y="1182" type="curve" smooth="yes"/>
      <point x="1106" y="1308"/>
      <point x="1024" y="1376"/>
      <point x="932" y="1385" type="curve"/>
      <point x="937" y="1465"/>
      <point x="1006" y="1514"/>
      <point x="1086" y="1515" type="curve"/>
      <point x="1086" y="1620" type="line"/>
      <point x="979" y="1631"/>
      <point x="704" y="1437"/>
      <point x="704" y="1225" type="curve" smooth="yes"/>
      <point x="704" y="1097"/>
      <point x="769" y="988"/>
    </contour>
  </outline>
</glyph>
<glyph name="dagger" format="1">
  <advance width="1434"/>
  <unicode hex="2020"/>
  <outline>
    <contour>
      <point x="710" y="5" type="curve" smooth="yes"/>
      <point x="801" y="5"/>
      <point x="890" y="76"/>
      <point x="890" y="214" type="curve" smooth="yes"/>
      <point x="890" y="360"/>
      <point x="840" y="629"/>
      <point x="775" y="1000" type="curve"/>
      <point x="881" y="960"/>
      <point x="999" y="910"/>
      <point x="1084" y="910" type="curve" smooth="yes"/>
      <point x="1162" y="910"/>
      <point x="1202" y="977"/>
      <point x="1202" y="1048" type="curve" smooth="yes"/>
      <point x="1202" y="1119"/>
      <point x="1163" y="1188"/>
      <point x="1086" y="1188" type="curve" smooth="yes"/>
      <point x="998" y="1188"/>
      <point x="876" y="1135"/>
      <point x="768" y="1093" type="curve"/>
      <point x="828" y="1224"/>
      <point x="891" y="1356"/>
      <point x="891" y="1451" type="curve" smooth="yes"/>
      <point x="891" y="1563"/>
      <point x="800" y="1620"/>
      <point x="710" y="1620" type="curve" smooth="yes"/>
      <point x="621" y="1620"/>
      <point x="533" y="1565"/>
      <point x="533" y="1451" type="curve" smooth="yes"/>
      <point x="533" y="1356"/>
      <point x="590" y="1228"/>
      <point x="650" y="1100" type="curve"/>
      <point x="530" y="1146"/>
      <point x="428" y="1188"/>
      <point x="344" y="1188" type="curve" smooth="yes"/>
      <point x="269" y="1188"/>
      <point x="229" y="1118"/>
      <point x="229" y="1048" type="curve" smooth="yes"/>
      <point x="229" y="977"/>
      <point x="268" y="910"/>
      <point x="348" y="910" type="curve" smooth="yes"/>
      <point x="427" y="910"/>
      <point x="540" y="955"/>
      <point x="645" y="996" type="curve"/>
      <point x="586" y="654"/>
      <point x="535" y="367"/>
      <point x="535" y="213" type="curve" smooth="yes"/>
      <point x="535" y="74"/>
      <point x="620" y="5"/>
    </contour>
  </outline>
</glyph>
<glyph name="ellipsis" format="1">
  <advance width="2025"/>
  <unicode hex="2026"/>
  <outline>
    <contour>
      <point x="353" y="-39" type="curve" smooth="yes"/>
      <point x="453" y="-39"/>
      <point x="550" y="31"/>
      <point x="550" y="166" type="curve" smooth="yes"/>
      <point x="550" y="300"/>
      <point x="453" y="370"/>
      <point x="353" y="370" type="curve" smooth="yes"/>
      <point x="252" y="370"/>
      <point x="155" y="300"/>
      <point x="155" y="166" type="curve" smooth="yes"/>
      <point x="155" y="31"/>
      <point x="253" y="-39"/>
    </contour>
    <contour>
      <point x="1011" y="-39" type="curve" smooth="yes"/>
      <point x="1112" y="-39"/>
      <point x="1209" y="31"/>
      <point x="1209" y="166" type="curve" smooth="yes"/>
      <point x="1209" y="301"/>
      <point x="1111" y="370"/>
      <point x="1011" y="370" type="curve" smooth="yes"/>
      <point x="911" y="370"/>
      <point x="813" y="300"/>
      <point x="813" y="166" type="curve" smooth="yes"/>
      <point x="813" y="31"/>
      <point x="911" y="-39"/>
    </contour>
    <contour>
      <point x="1669" y="-39" type="curve" smooth="yes"/>
      <point x="1770" y="-39"/>
      <point x="1867" y="31"/>
      <point x="1867" y="166" type="curve" smooth="yes"/>
      <point x="1867" y="299"/>
      <point x="1769" y="370"/>
      <point x="1671" y="370" type="curve" smooth="yes"/>
      <point x="1569" y="370"/>
      <point x="1472" y="301"/>
      <point x="1472" y="166" type="curve" smooth="yes"/>
      <point x="1472" y="30"/>
      <point x="1569" y="-39"/>
    </contour>
  </outline>
</glyph>
<glyph name="guilsinglright" format="1">
  <advance width="1159"/>
  <unicode hex="203A"/>
  <outline>
    <contour>
      <point x="277" y="196" type="curve" smooth="yes"/>
      <point x="296" y="196"/>
      <point x="318" y="202"/>
      <point x="340" y="219" type="curve" smooth="yes"/>
      <point x="864" y="600" type="line" smooth="yes"/>
      <point x="923" y="643"/>
      <point x="952" y="710"/>
      <point x="952" y="776" type="curve" smooth="yes"/>
      <point x="951" y="844"/>
      <point x="921" y="913"/>
      <point x="864" y="955" type="curve" smooth="yes"/>
      <point x="340" y="1336" type="line" smooth="yes"/>
      <point x="317" y="1353"/>
      <point x="293" y="1359"/>
      <point x="276" y="1359" type="curve" smooth="yes"/>
      <point x="230" y="1359"/>
      <point x="197" y="1322"/>
      <point x="197" y="1274" type="curve" smooth="yes"/>
      <point x="197" y="1253"/>
      <point x="203" y="1230"/>
      <point x="221" y="1207" type="curve" smooth="yes"/>
      <point x="563" y="777" type="line"/>
      <point x="221" y="348" type="line" smooth="yes"/>
      <point x="204" y="327"/>
      <point x="199" y="304"/>
      <point x="199" y="281" type="curve" smooth="yes"/>
      <point x="199" y="235"/>
      <point x="232" y="196"/>
    </contour>
  </outline>
</glyph>
<glyph name="uni2113" format="1">
  <advance width="1380"/>
  <unicode hex="2113"/>
  <outline>
    <contour>
      <point x="820" y="-24" type="curve" smooth="yes"/>
      <point x="928" y="-25"/>
      <point x="1080" y="-6"/>
      <point x="1081" y="-6" type="curve"/>
      <point x="1081" y="214" type="line"/>
      <point x="963" y="214"/>
      <point x="896" y="229"/>
      <point x="857" y="254" type="curve"/>
      <point x="808" y="279"/>
      <point x="801" y="318"/>
      <point x="801" y="366" type="curve" smooth="yes"/>
      <point x="801" y="812" type="line"/>
      <point x="1204" y="1054"/>
      <point x="1421" y="1305"/>
      <point x="1357" y="1586" type="curve" smooth="yes"/>
      <point x="1315" y="1771"/>
      <point x="1131" y="1868"/>
      <point x="925" y="1867" type="curve" smooth="yes"/>
      <point x="626" y="1865"/>
      <point x="285" y="1659"/>
      <point x="285" y="1206" type="curve" smooth="yes"/>
      <point x="285" y="721" type="line"/>
      <point x="118" y="602" type="line"/>
      <point x="118" y="398" type="line"/>
      <point x="285" y="528" type="line"/>
      <point x="285" y="347" type="line" smooth="yes"/>
      <point x="285" y="35"/>
      <point x="439" y="-23"/>
    </contour>
    <contour>
      <point x="797" y="1025" type="curve"/>
      <point x="797" y="1331" type="line" smooth="yes"/>
      <point x="797" y="1535"/>
      <point x="847" y="1637"/>
      <point x="982" y="1641" type="curve" smooth="yes"/>
      <point x="1085" y="1645"/>
      <point x="1123" y="1594"/>
      <point x="1133" y="1522" type="curve" smooth="yes"/>
      <point x="1173" y="1236"/>
      <point x="825" y="1045"/>
    </contour>
  </outline>
</glyph>
<glyph name="minus" format="1">
  <advance width="1474"/>
  <unicode hex="2212"/>
  <outline>
    <contour>
      <point x="174" y="657" type="line"/>
      <point x="1299" y="657" type="line"/>
      <point x="1299" y="885" type="line"/>
      <point x="174" y="885" type="line"/>
    </contour>
  </outline>
</glyph>
<glyph name="integral" format="1">
  <advance width="1365"/>
  <unicode hex="222B"/>
  <outline>
    <contour>
      <point x="536" y="-304" type="curve" smooth="yes"/>
      <point x="717" y="-304"/>
      <point x="833" y="-255"/>
      <point x="858" y="36" type="curve" smooth="yes"/>
      <point x="971" y="1343" type="line" smooth="yes"/>
      <point x="983" y="1479"/>
      <point x="998" y="1504"/>
      <point x="1083" y="1504" type="curve" smooth="yes"/>
      <point x="1113" y="1504"/>
      <point x="1154" y="1492"/>
      <point x="1185" y="1475" type="curve"/>
      <point x="1254" y="1623" type="line"/>
      <point x="1210" y="1648"/>
      <point x="1127" y="1674"/>
      <point x="1071" y="1674" type="curve" smooth="yes"/>
      <point x="890" y="1674"/>
      <point x="775" y="1625"/>
      <point x="750" y="1334" type="curve" smooth="yes"/>
      <point x="636" y="27" type="line" smooth="yes"/>
      <point x="624" y="-109"/>
      <point x="609" y="-134"/>
      <point x="524" y="-134" type="curve" smooth="yes"/>
      <point x="494" y="-134"/>
      <point x="453" y="-123"/>
      <point x="422" y="-105" type="curve"/>
      <point x="353" y="-254" type="line"/>
      <point x="397" y="-278"/>
      <point x="480" y="-304"/>
    </contour>
  </outline>
</glyph>
<glyph name="caron.alt" format="1">
  <advance width="1150"/>
  <outline>
    <contour>
      <point x="333" y="1280" type="move" name="_caron.alt"/>
    </contour>
    <contour>
      <point x="601" y="1905" type="curve" smooth="yes"/>
      <point x="601" y="1778"/>
      <point x="683" y="1710"/>
      <point x="777" y="1700" type="curve"/>
      <point x="771" y="1622"/>
      <point x="703" y="1575"/>
      <point x="623" y="1574" type="curve"/>
      <point x="623" y="1470" type="line"/>
      <point x="807" y="1470"/>
      <point x="1004" y="1652"/>
      <point x="1004" y="1864" type="curve" smooth="yes"/>
      <point x="1004" y="1993"/>
      <point x="936" y="2098"/>
      <point x="799" y="2098" type="curve" smooth="yes"/>
      <point x="700" y="2098"/>
      <point x="601" y="2033"/>
    </contour>
  </outline>
</glyph>
<glyph name="foundryicon" format="1">
  <advance width="1389"/>
  <outline>
    <contour>
      <point x="499" y="405" type="line"/>
      <point x="499" y="672" type="line"/>
      <point x="605" y="672" type="line"/>
      <point x="775" y="523" type="line"/>
      <point x="775" y="672" type="line"/>
      <point x="881" y="672" type="line"/>
      <point x="881" y="405" type="line"/>
      <point x="775" y="405" type="line"/>
      <point x="605" y="552" type="line"/>
      <point x="605" y="405" type="line"/>
    </contour>
    <contour>
      <point x="294" y="2" type="line"/>
      <point x="683" y="278" type="line"/>
      <point x="1080" y="2" type="line"/>
      <point x="936" y="461" type="line"/>
      <point x="1327" y="755" type="line"/>
      <point x="842" y="755" type="line"/>
      <point x="683" y="1215" type="line"/>
      <point x="533" y="755" type="line"/>
      <point x="48" y="755" type="line"/>
      <point x="437" y="461" type="line"/>
    </contour>
  </outline>
</glyph>
